<svg width="5511" height="6230" viewBox="0 0 5511 6230" fill="none" xmlns="http://www.w3.org/2000/svg">
<rect width="5511" height="6230" fill="#D77587"/>
<g id="Figure and Sports Items" filter="url(#filter0_d)">
<g id="Basketball">
<ellipse id="Ellipse 1" cx="2694.38" cy="3490.5" rx="175" ry="180.5" fill="#CE6112"/>
<path id="Ellipse 2" d="M2633.26 3658.86C2605.55 3654.56 2577.08 3583.27 2577.08 3490.5C2577.08 3397.73 2613.14 3323.31 2640.09 3319.4" stroke="black"/>
<path id="Ellipse 5" d="M2869.38 3491.3C2864.94 3496.12 2791.44 3501.07 2695.79 3501.07C2600.14 3501.07 2523.41 3494.8 2519.38 3490.11" stroke="black"/>
<path id="Ellipse 3" d="M2806.74 3352.68C2793.83 3342.89 2752.85 3323.44 2678.81 3392.22C2538.74 3506.16 2560.37 3407.89 2537.6 3410.63" stroke="black"/>
<path id="Ellipse 4" d="M2806.74 3627.9C2793.83 3637.69 2752.85 3657.14 2678.81 3588.36C2538.74 3474.42 2560.37 3572.7 2537.6 3569.96" stroke="black"/>
</g>
<g id="Baseball">
<path id="Ellipse 1_2" d="M2756.13 3756.31C2756.13 3801.73 2718.92 3838.56 2673 3838.56C2627.09 3838.56 2589.88 3801.73 2589.88 3756.31C2589.88 3710.89 2627.09 3674.06 2673 3674.06C2718.92 3674.06 2756.13 3710.89 2756.13 3756.31Z" fill="white" stroke="black"/>
<path id="Ellipse 2_2" d="M2755.2 3769.58C2705.55 3769.58 2678.71 3721.98 2678.71 3674.41M2591.09 3742.47C2640.74 3742.47 2668.72 3791.49 2668.72 3839.06" stroke="black"/>
<g id="Group 32">
<g id="Group 1">
<ellipse id="Ellipse 3_2" cx="2683.85" cy="3676.39" rx="0.856242" ry="0.847235" fill="black"/>
<ellipse id="Ellipse 5_2" cx="2673.57" cy="3676.39" rx="0.856242" ry="0.847235" fill="black"/>
<path id="Ellipse 4_2" d="M2683.85 3676.39C2683.28 3677.52 2680.13 3674.13 2678.71 3674.13C2677.29 3674.13 2674.14 3677.52 2673.57 3676.39" stroke="#CD1F1F"/>
</g>
<g id="Group 30">
<ellipse id="Ellipse 3_3" cx="2683.85" cy="3675.26" rx="0.856242" ry="0.847235" fill="black"/>
<ellipse id="Ellipse 5_3" cx="2673.57" cy="3675.26" rx="0.856242" ry="0.847235" fill="black"/>
<path id="Ellipse 4_3" d="M2683.85 3675.26C2683.28 3676.39 2680.13 3673 2678.71 3673C2677.29 3673 2674.14 3676.39 2673.57 3675.26" stroke="#CD1F1F"/>
</g>
<g id="Group 31">
<ellipse id="Ellipse 3_4" cx="2683.85" cy="3678.08" rx="0.856242" ry="0.847235" fill="black"/>
<ellipse id="Ellipse 5_4" cx="2673.57" cy="3678.08" rx="0.856242" ry="0.847235" fill="black"/>
<path id="Ellipse 4_4" d="M2683.85 3678.08C2683.28 3679.21 2680.13 3675.82 2678.71 3675.82C2677.29 3675.82 2674.14 3679.21 2673.57 3678.08" stroke="#CD1F1F"/>
</g>
<g id="Group 2">
<ellipse id="Ellipse 3_5" cx="2683.85" cy="3680.34" rx="0.856242" ry="0.847235" fill="black"/>
<ellipse id="Ellipse 5_5" cx="2673.57" cy="3680.34" rx="0.856242" ry="0.847235" fill="black"/>
<path id="Ellipse 4_5" d="M2683.85 3680.34C2683.28 3681.47 2680.13 3678.08 2678.71 3678.08C2677.29 3678.08 2674.14 3681.47 2673.57 3680.34" stroke="#CD1F1F"/>
</g>
<g id="Group 3">
<ellipse id="Ellipse 3_6" cx="2684.42" cy="3684.3" rx="0.856242" ry="0.847235" fill="black"/>
<ellipse id="Ellipse 5_6" cx="2674.14" cy="3684.3" rx="0.856242" ry="0.847235" fill="black"/>
<path id="Ellipse 4_6" d="M2684.42 3684.3C2683.85 3685.43 2680.7 3682.04 2679.28 3682.04C2677.86 3682.04 2674.72 3685.43 2674.14 3684.3" stroke="#CD1F1F"/>
</g>
<g id="Group 4">
<ellipse id="Ellipse 3_7" cx="2684.42" cy="3688.82" rx="0.856242" ry="0.847235" fill="black"/>
<ellipse id="Ellipse 5_7" cx="2674.14" cy="3688.82" rx="0.856242" ry="0.847235" fill="black"/>
<path id="Ellipse 4_7" d="M2684.42 3688.82C2683.85 3689.94 2680.7 3686.56 2679.28 3686.56C2677.86 3686.56 2674.72 3689.94 2674.14 3688.82" stroke="#CD1F1F"/>
</g>
<g id="Group 5">
<ellipse id="Ellipse 3_8" cx="2685.56" cy="3693.33" rx="0.856242" ry="0.847235" fill="black"/>
<ellipse id="Ellipse 5_8" cx="2675.29" cy="3693.33" rx="0.856242" ry="0.847235" fill="black"/>
<path id="Ellipse 4_8" d="M2685.56 3693.33C2684.99 3694.46 2681.84 3691.07 2680.42 3691.07C2679.01 3691.07 2675.86 3694.46 2675.29 3693.33" stroke="#CD1F1F"/>
</g>
<g id="Group 6">
<ellipse id="Ellipse 3_9" cx="2686.13" cy="3697.85" rx="0.856242" ry="0.847235" fill="black"/>
<ellipse id="Ellipse 5_9" cx="2675.86" cy="3697.85" rx="0.856242" ry="0.847235" fill="black"/>
<path id="Ellipse 4_9" d="M2686.13 3697.85C2685.56 3698.98 2682.41 3695.59 2680.99 3695.59C2679.58 3695.59 2676.43 3698.98 2675.86 3697.85" stroke="#CD1F1F"/>
</g>
<g id="Group 7">
<ellipse id="Ellipse 3_10" cx="2686.7" cy="3702.37" rx="0.856242" ry="0.847235" fill="black"/>
<ellipse id="Ellipse 5_10" cx="2676.43" cy="3702.37" rx="0.856242" ry="0.847235" fill="black"/>
<path id="Ellipse 4_10" d="M2686.7 3702.37C2686.13 3703.5 2682.98 3700.11 2681.57 3700.11C2680.15 3700.11 2677 3703.5 2676.43 3702.37" stroke="#CD1F1F"/>
</g>
<g id="Group 8">
<ellipse id="Ellipse 3_11" cx="2687.84" cy="3706.89" rx="0.856242" ry="0.847235" fill="black"/>
<ellipse id="Ellipse 5_11" cx="2677.57" cy="3706.89" rx="0.856242" ry="0.847235" fill="black"/>
<path id="Ellipse 4_11" d="M2687.84 3706.89C2687.27 3708.02 2684.13 3704.63 2682.71 3704.63C2681.29 3704.63 2678.14 3708.02 2677.57 3706.89" stroke="#CD1F1F"/>
</g>
<g id="Group 9">
<ellipse id="Ellipse 3_12" cx="2689.56" cy="3711.41" rx="0.856242" ry="0.847235" fill="black"/>
<ellipse id="Ellipse 5_12" cx="2679.28" cy="3711.41" rx="0.856242" ry="0.847235" fill="black"/>
<path id="Ellipse 4_12" d="M2689.56 3711.41C2688.99 3712.54 2685.84 3709.15 2684.42 3709.15C2683 3709.15 2679.85 3712.54 2679.28 3711.41" stroke="#CD1F1F"/>
</g>
<g id="Group 10">
<ellipse id="Ellipse 3_13" rx="0.856217" ry="0.84726" transform="matrix(0.998658 -0.0517869 0.0528908 0.9986 2690.73 3715.66)" fill="black"/>
<ellipse id="Ellipse 5_13" rx="0.856217" ry="0.84726" transform="matrix(0.998658 -0.0517869 0.0528908 0.9986 2680.47 3716.19)" fill="black"/>
<path id="Ellipse 4_13" d="M2690.73 3715.66C2690.22 3716.82 2686.9 3713.6 2685.48 3713.67C2684.06 3713.74 2681.1 3717.29 2680.47 3716.19" stroke="#CD1F1F"/>
</g>
<g id="Group 11">
<ellipse id="Ellipse 3_14" rx="0.856174" ry="0.847304" transform="matrix(0.996274 -0.0862458 0.0880751 0.996114 2692.53 3720.31)" fill="black"/>
<ellipse id="Ellipse 5_14" rx="0.856174" ry="0.847304" transform="matrix(0.996274 -0.0862458 0.0880751 0.996114 2682.29 3721.19)" fill="black"/>
<path id="Ellipse 4_14" d="M2692.53 3720.31C2692.06 3721.48 2688.62 3718.38 2687.21 3718.5C2685.8 3718.62 2682.96 3722.27 2682.29 3721.19" stroke="#CD1F1F"/>
</g>
<g id="Group 12">
<ellipse id="Ellipse 3_15" rx="0.856068" ry="0.847411" transform="matrix(0.990469 -0.137737 0.140623 0.990063 2694.29 3725.33)" fill="black"/>
<ellipse id="Ellipse 5_15" rx="0.856068" ry="0.847411" transform="matrix(0.990469 -0.137737 0.140623 0.990063 2684.11 3726.74)" fill="black"/>
<path id="Ellipse 4_15" d="M2694.29 3725.33C2693.88 3726.52 2690.29 3723.6 2688.88 3723.8C2687.48 3723.99 2684.84 3727.78 2684.11 3726.74" stroke="#CD1F1F"/>
</g>
<g id="Group 13">
<ellipse id="Ellipse 3_16" rx="0.855916" ry="0.847565" transform="matrix(0.982001 -0.188874 0.192762 0.981245 2696.61 3729.87)" fill="black"/>
<ellipse id="Ellipse 5_16" rx="0.855916" ry="0.847565" transform="matrix(0.982001 -0.188874 0.192762 0.981245 2686.52 3731.81)" fill="black"/>
<path id="Ellipse 4_16" d="M2696.61 3729.87C2696.27 3731.09 2692.52 3728.36 2691.13 3728.63C2689.74 3728.89 2687.3 3732.82 2686.52 3731.81" stroke="#CD1F1F"/>
</g>
<g id="Group 14">
<ellipse id="Ellipse 3_17" rx="0.855717" ry="0.847765" transform="matrix(0.97089 -0.239524 0.244341 0.969689 2700.04 3734.98)" fill="black"/>
<ellipse id="Ellipse 5_17" rx="0.855717" ry="0.847765" transform="matrix(0.97089 -0.239524 0.244341 0.969689 2690.07 3737.44)" fill="black"/>
<path id="Ellipse 4_17" d="M2700.04 3734.98C2699.76 3736.22 2695.88 3733.68 2694.5 3734.02C2693.13 3734.36 2690.9 3738.4 2690.07 3737.44" stroke="#CD1F1F"/>
</g>
<g id="Group 15">
<ellipse id="Ellipse 3_18" rx="0.855476" ry="0.848009" transform="matrix(0.957161 -0.289555 0.29521 0.955432 2702.87 3740.09)" fill="black"/>
<ellipse id="Ellipse 5_18" rx="0.855476" ry="0.848009" transform="matrix(0.957161 -0.289555 0.29521 0.955432 2693.05 3743.06)" fill="black"/>
<path id="Ellipse 4_18" d="M2702.87 3740.09C2702.66 3741.33 2698.65 3739 2697.29 3739.41C2695.93 3739.82 2693.93 3743.97 2693.05 3743.06" stroke="#CD1F1F"/>
</g>
<g id="Group 16">
<ellipse id="Ellipse 3_19" rx="0.855193" ry="0.848294" transform="matrix(0.940845 -0.338838 0.345225 0.93852 2706.81 3744.05)" fill="black"/>
<ellipse id="Ellipse 5_19" rx="0.855193" ry="0.848294" transform="matrix(0.940845 -0.338838 0.345225 0.93852 2697.16 3747.53)" fill="black"/>
<path id="Ellipse 4_19" d="M2706.81 3744.05C2706.67 3745.31 2702.54 3743.19 2701.2 3743.67C2699.87 3744.15 2698.08 3748.4 2697.16 3747.53" stroke="#CD1F1F"/>
</g>
<g id="Group 17">
<ellipse id="Ellipse 3_20" rx="0.854873" ry="0.848617" transform="matrix(0.921979 -0.38724 0.394242 0.919007 2710.72 3748.58)" fill="black"/>
<ellipse id="Ellipse 5_20" rx="0.854873" ry="0.848617" transform="matrix(0.921979 -0.38724 0.394242 0.919007 2701.27 3752.55)" fill="black"/>
<path id="Ellipse 4_20" d="M2710.72 3748.58C2710.64 3749.84 2706.41 3747.94 2705.1 3748.49C2703.8 3749.03 2702.24 3753.37 2701.27 3752.55" stroke="#CD1F1F"/>
</g>
<g id="Group 18">
<ellipse id="Ellipse 3_21" rx="0.854393" ry="0.8491" transform="matrix(0.892934 -0.450187 0.457809 0.88905 2715.15 3753.01)" fill="black"/>
<ellipse id="Ellipse 5_21" rx="0.854393" ry="0.8491" transform="matrix(0.892934 -0.450187 0.457809 0.88905 2705.99 3757.63)" fill="black"/>
<path id="Ellipse 4_21" d="M2715.15 3753.01C2715.16 3754.28 2710.8 3752.67 2709.53 3753.31C2708.27 3753.95 2707.02 3758.38 2705.99 3757.63" stroke="#CD1F1F"/>
</g>
<g id="Group 19">
<ellipse id="Ellipse 3_22" rx="0.85358" ry="0.849917" transform="matrix(0.841286 -0.540591 0.548692 0.836024 2720.57 3756.23)" fill="black"/>
<ellipse id="Ellipse 5_22" rx="0.85358" ry="0.849917" transform="matrix(0.841286 -0.540591 0.548692 0.836024 2711.95 3761.77)" fill="black"/>
<path id="Ellipse 4_22" d="M2720.57 3756.23C2720.71 3757.49 2716.21 3756.34 2715.02 3757.11C2713.83 3757.87 2713.06 3762.41 2711.95 3761.77" stroke="#CD1F1F"/>
</g>
<g id="Group 20">
<circle id="Ellipse 3_23" r="0.851751" transform="matrix(0.710835 -0.703358 0.710835 0.703358 2729.83 3761.32)" fill="black"/>
<circle id="Ellipse 5_23" r="0.851751" transform="matrix(0.710835 -0.703358 0.710835 0.703358 2722.57 3768.51)" fill="black"/>
<path id="Ellipse 4_23" d="M2729.83 3761.32C2730.24 3762.52 2725.59 3762.33 2724.59 3763.32C2723.58 3764.31 2723.78 3768.91 2722.57 3768.51" stroke="#CD1F1F"/>
</g>
<g id="Group 22">
<ellipse id="Ellipse 3_24" rx="0.850661" ry="0.852839" transform="matrix(0.619701 -0.784838 0.791155 0.611616 2735.03 3762.61)" fill="black"/>
<ellipse id="Ellipse 5_24" rx="0.850661" ry="0.852839" transform="matrix(0.619701 -0.784838 0.791155 0.611616 2728.7 3770.62)" fill="black"/>
<path id="Ellipse 4_24" d="M2735.03 3762.61C2735.58 3763.75 2730.94 3764.11 2730.07 3765.22C2729.19 3766.33 2729.95 3770.87 2728.7 3770.62" stroke="#CD1F1F"/>
</g>
<g id="Group 23">
<ellipse id="Ellipse 3_25" rx="0.850209" ry="0.853289" transform="matrix(0.577646 -0.816287 0.821986 0.569507 2739.97 3764.11)" fill="black"/>
<ellipse id="Ellipse 5_25" rx="0.850209" ry="0.853289" transform="matrix(0.577646 -0.816287 0.821986 0.569507 2734.08 3772.44)" fill="black"/>
<path id="Ellipse 4_25" d="M2739.97 3764.11C2740.58 3765.22 2735.97 3765.83 2735.15 3766.98C2734.34 3768.13 2735.34 3772.63 2734.08 3772.44" stroke="#CD1F1F"/>
</g>
<g id="Group 24">
<ellipse id="Ellipse 3_26" rx="0.849496" ry="0.853999" transform="matrix(0.503971 -0.863721 0.8683 0.49604 2745.13 3765.64)" fill="black"/>
<ellipse id="Ellipse 5_26" rx="0.849496" ry="0.853999" transform="matrix(0.503971 -0.863721 0.8683 0.49604 2739.99 3774.44)" fill="black"/>
<path id="Ellipse 4_26" d="M2745.13 3765.64C2745.84 3766.69 2741.29 3767.69 2740.59 3768.91C2739.88 3770.12 2741.27 3774.52 2739.99 3774.44" stroke="#CD1F1F"/>
</g>
<g id="Group 25">
<ellipse id="Ellipse 3_27" rx="0.848294" ry="0.855193" transform="matrix(0.345225 -0.93852 0.940845 0.338838 2749.14 3765.88)" fill="black"/>
<ellipse id="Ellipse 5_27" rx="0.848294" ry="0.855193" transform="matrix(0.345225 -0.93852 0.940845 0.338838 2745.63 3775.43)" fill="black"/>
<path id="Ellipse 4_27" d="M2749.14 3765.88C2750.02 3766.8 2745.73 3768.56 2745.24 3769.88C2744.75 3771.2 2746.9 3775.29 2745.63 3775.43" stroke="#CD1F1F"/>
</g>
<g id="Group 26">
<ellipse id="Ellipse 3_28" rx="0.847694" ry="0.855789" transform="matrix(0.22722 -0.973844 0.974886 0.222703 2751.73 3765.81)" fill="black"/>
<ellipse id="Ellipse 5_28" rx="0.847694" ry="0.855789" transform="matrix(0.22722 -0.973844 0.974886 0.222703 2749.42 3775.72)" fill="black"/>
<path id="Ellipse 4_28" d="M2751.73 3765.81C2752.71 3766.62 2748.67 3768.89 2748.35 3770.26C2748.03 3771.62 2750.66 3775.42 2749.42 3775.72" stroke="#CD1F1F"/>
</g>
<g id="Group 27">
<ellipse id="Ellipse 3_29" rx="0.847508" ry="0.855972" transform="matrix(0.175438 -0.98449 0.985119 0.171876 2753.68 3765.75)" fill="black"/>
<ellipse id="Ellipse 5_29" rx="0.847508" ry="0.855972" transform="matrix(0.175438 -0.98449 0.985119 0.171876 2751.9 3775.76)" fill="black"/>
<path id="Ellipse 4_29" d="M2753.68 3765.75C2754.71 3766.5 2750.79 3768.98 2750.54 3770.36C2750.29 3771.74 2753.12 3775.4 2751.9 3775.76" stroke="#CD1F1F"/>
</g>
<g id="Group 28">
<ellipse id="Ellipse 3_30" rx="0.847304" ry="0.856174" transform="matrix(0.0880751 -0.996114 0.996274 0.0862458 2754.67 3765.61)" fill="black"/>
<ellipse id="Ellipse 5_30" rx="0.847304" ry="0.856174" transform="matrix(0.0880751 -0.996114 0.996274 0.0862458 2753.77 3775.74)" fill="black"/>
<path id="Ellipse 4_30" d="M2754.67 3765.61C2755.75 3766.27 2752.07 3769.08 2751.94 3770.48C2751.82 3771.87 2754.96 3775.27 2753.77 3775.74" stroke="#CD1F1F"/>
</g>
<g id="Group 29">
<ellipse id="Ellipse 3_31" rx="0.847304" ry="0.856174" transform="matrix(0.0880751 -0.996114 0.996274 0.0862458 2756.45 3765.54)" fill="black"/>
<ellipse id="Ellipse 5_31" rx="0.847304" ry="0.856174" transform="matrix(0.0880751 -0.996114 0.996274 0.0862458 2755.55 3775.67)" fill="black"/>
<path id="Ellipse 4_31" d="M2756.45 3765.54C2757.54 3766.2 2753.85 3769.01 2753.73 3770.41C2753.6 3771.81 2756.74 3775.21 2755.55 3775.67" stroke="#CD1F1F"/>
</g>
<g id="Group 21">
<ellipse id="Ellipse 3_32" rx="0.852532" ry="0.850968" transform="matrix(0.769378 -0.638794 0.646771 0.762684 2724.95 3758.87)" fill="black"/>
<ellipse id="Ellipse 5_32" rx="0.852532" ry="0.850968" transform="matrix(0.769378 -0.638794 0.646771 0.762684 2717.08 3765.4)" fill="black"/>
<path id="Ellipse 4_32" d="M2724.95 3758.87C2725.25 3760.1 2720.64 3759.5 2719.55 3760.41C2718.46 3761.31 2718.25 3765.91 2717.08 3765.4" stroke="#CD1F1F"/>
</g>
</g>
<g id="Group 33">
<g id="Group 1_2">
<ellipse id="Ellipse 3_33" cx="2663.48" cy="3836.61" rx="0.856242" ry="0.847235" transform="rotate(-180 2663.48 3836.61)" fill="black"/>
<ellipse id="Ellipse 5_33" cx="2673.75" cy="3836.61" rx="0.856242" ry="0.847235" transform="rotate(-180 2673.75 3836.61)" fill="black"/>
<path id="Ellipse 4_33" d="M2663.48 3836.61C2664.05 3835.48 2667.19 3838.87 2668.61 3838.87C2670.03 3838.87 2673.18 3835.48 2673.75 3836.61" stroke="#CD1F1F"/>
</g>
<g id="Group 30_2">
<ellipse id="Ellipse 3_34" cx="2663.48" cy="3837.74" rx="0.856242" ry="0.847235" transform="rotate(-180 2663.48 3837.74)" fill="black"/>
<ellipse id="Ellipse 5_34" cx="2673.75" cy="3837.74" rx="0.856242" ry="0.847235" transform="rotate(-180 2673.75 3837.74)" fill="black"/>
<path id="Ellipse 4_34" d="M2663.48 3837.74C2664.05 3836.61 2667.19 3840 2668.61 3840C2670.03 3840 2673.18 3836.61 2673.75 3837.74" stroke="#CD1F1F"/>
</g>
<g id="Group 31_2">
<ellipse id="Ellipse 3_35" cx="2663.48" cy="3834.92" rx="0.856242" ry="0.847235" transform="rotate(-180 2663.48 3834.92)" fill="black"/>
<ellipse id="Ellipse 5_35" cx="2673.75" cy="3834.92" rx="0.856242" ry="0.847235" transform="rotate(-180 2673.75 3834.92)" fill="black"/>
<path id="Ellipse 4_35" d="M2663.48 3834.92C2664.05 3833.79 2667.19 3837.18 2668.61 3837.18C2670.03 3837.18 2673.18 3833.79 2673.75 3834.92" stroke="#CD1F1F"/>
</g>
<g id="Group 2_2">
<ellipse id="Ellipse 3_36" cx="2663.48" cy="3832.66" rx="0.856242" ry="0.847235" transform="rotate(-180 2663.48 3832.66)" fill="black"/>
<ellipse id="Ellipse 5_36" cx="2673.75" cy="3832.66" rx="0.856242" ry="0.847235" transform="rotate(-180 2673.75 3832.66)" fill="black"/>
<path id="Ellipse 4_36" d="M2663.48 3832.66C2664.05 3831.53 2667.19 3834.92 2668.61 3834.92C2670.03 3834.92 2673.18 3831.53 2673.75 3832.66" stroke="#CD1F1F"/>
</g>
<g id="Group 3_2">
<ellipse id="Ellipse 3_37" cx="2662.9" cy="3828.7" rx="0.856242" ry="0.847235" transform="rotate(-180 2662.9 3828.7)" fill="black"/>
<ellipse id="Ellipse 5_37" cx="2673.18" cy="3828.7" rx="0.856242" ry="0.847235" transform="rotate(-180 2673.18 3828.7)" fill="black"/>
<path id="Ellipse 4_37" d="M2662.9 3828.7C2663.48 3827.57 2666.62 3830.96 2668.04 3830.96C2669.46 3830.96 2672.61 3827.57 2673.18 3828.7" stroke="#CD1F1F"/>
</g>
<g id="Group 4_2">
<ellipse id="Ellipse 3_38" cx="2662.9" cy="3824.18" rx="0.856242" ry="0.847235" transform="rotate(-180 2662.9 3824.18)" fill="black"/>
<ellipse id="Ellipse 5_38" cx="2673.18" cy="3824.18" rx="0.856242" ry="0.847235" transform="rotate(-180 2673.18 3824.18)" fill="black"/>
<path id="Ellipse 4_38" d="M2662.9 3824.18C2663.48 3823.06 2666.62 3826.44 2668.04 3826.44C2669.46 3826.44 2672.61 3823.06 2673.18 3824.18" stroke="#CD1F1F"/>
</g>
<g id="Group 5_2">
<ellipse id="Ellipse 3_39" cx="2661.76" cy="3819.67" rx="0.856242" ry="0.847235" transform="rotate(-180 2661.76 3819.67)" fill="black"/>
<ellipse id="Ellipse 5_39" cx="2672.04" cy="3819.67" rx="0.856242" ry="0.847235" transform="rotate(-180 2672.04 3819.67)" fill="black"/>
<path id="Ellipse 4_39" d="M2661.76 3819.67C2662.33 3818.54 2665.48 3821.93 2666.9 3821.93C2668.32 3821.93 2671.47 3818.54 2672.04 3819.67" stroke="#CD1F1F"/>
</g>
<g id="Group 6_2">
<ellipse id="Ellipse 3_40" cx="2661.19" cy="3815.15" rx="0.856242" ry="0.847235" transform="rotate(-180 2661.19 3815.15)" fill="black"/>
<ellipse id="Ellipse 5_40" cx="2671.47" cy="3815.15" rx="0.856242" ry="0.847235" transform="rotate(-180 2671.47 3815.15)" fill="black"/>
<path id="Ellipse 4_40" d="M2661.19 3815.15C2661.76 3814.02 2664.91 3817.41 2666.33 3817.41C2667.75 3817.41 2670.9 3814.02 2671.47 3815.15" stroke="#CD1F1F"/>
</g>
<g id="Group 7_2">
<ellipse id="Ellipse 3_41" cx="2660.62" cy="3810.63" rx="0.856242" ry="0.847235" transform="rotate(-180 2660.62 3810.63)" fill="black"/>
<ellipse id="Ellipse 5_41" cx="2670.9" cy="3810.63" rx="0.856242" ry="0.847235" transform="rotate(-180 2670.9 3810.63)" fill="black"/>
<path id="Ellipse 4_41" d="M2660.62 3810.63C2661.19 3809.5 2664.34 3812.89 2665.76 3812.89C2667.18 3812.89 2670.33 3809.5 2670.9 3810.63" stroke="#CD1F1F"/>
</g>
<g id="Group 8_2">
<ellipse id="Ellipse 3_42" cx="2659.48" cy="3806.11" rx="0.856242" ry="0.847235" transform="rotate(-180 2659.48 3806.11)" fill="black"/>
<ellipse id="Ellipse 5_42" cx="2669.75" cy="3806.11" rx="0.856242" ry="0.847235" transform="rotate(-180 2669.75 3806.11)" fill="black"/>
<path id="Ellipse 4_42" d="M2659.48 3806.11C2660.05 3804.98 2663.2 3808.37 2664.62 3808.37C2666.04 3808.37 2669.18 3804.98 2669.75 3806.11" stroke="#CD1F1F"/>
</g>
<g id="Group 9_2">
<ellipse id="Ellipse 3_43" cx="2657.77" cy="3801.59" rx="0.856242" ry="0.847235" transform="rotate(-180 2657.77 3801.59)" fill="black"/>
<ellipse id="Ellipse 5_43" cx="2668.04" cy="3801.59" rx="0.856242" ry="0.847235" transform="rotate(-180 2668.04 3801.59)" fill="black"/>
<path id="Ellipse 4_43" d="M2657.77 3801.59C2658.34 3800.46 2661.49 3803.85 2662.9 3803.85C2664.32 3803.85 2667.47 3800.46 2668.04 3801.59" stroke="#CD1F1F"/>
</g>
<g id="Group 10_2">
<ellipse id="Ellipse 3_44" rx="0.856217" ry="0.84726" transform="matrix(-0.998658 0.0517869 -0.0528908 -0.9986 2656.6 3797.34)" fill="black"/>
<ellipse id="Ellipse 5_44" rx="0.856217" ry="0.84726" transform="matrix(-0.998658 0.0517869 -0.0528908 -0.9986 2666.86 3796.81)" fill="black"/>
<path id="Ellipse 4_44" d="M2656.6 3797.34C2657.11 3796.18 2660.43 3799.4 2661.85 3799.33C2663.26 3799.26 2666.23 3795.71 2666.86 3796.81" stroke="#CD1F1F"/>
</g>
<g id="Group 11_2">
<ellipse id="Ellipse 3_45" rx="0.856174" ry="0.847304" transform="matrix(-0.996274 0.0862458 -0.0880751 -0.996114 2654.8 3792.69)" fill="black"/>
<ellipse id="Ellipse 5_45" rx="0.856174" ry="0.847304" transform="matrix(-0.996274 0.0862458 -0.0880751 -0.996114 2665.03 3791.81)" fill="black"/>
<path id="Ellipse 4_45" d="M2654.8 3792.69C2655.27 3791.52 2658.7 3794.62 2660.11 3794.5C2661.53 3794.38 2664.36 3790.73 2665.03 3791.81" stroke="#CD1F1F"/>
</g>
<g id="Group 12_2">
<ellipse id="Ellipse 3_46" rx="0.856068" ry="0.847411" transform="matrix(-0.990469 0.137737 -0.140623 -0.990063 2653.04 3787.67)" fill="black"/>
<ellipse id="Ellipse 5_46" rx="0.856068" ry="0.847411" transform="matrix(-0.990469 0.137737 -0.140623 -0.990063 2663.21 3786.26)" fill="black"/>
<path id="Ellipse 4_46" d="M2653.04 3787.67C2653.44 3786.48 2657.04 3789.4 2658.44 3789.2C2659.85 3789.01 2662.49 3785.22 2663.21 3786.26" stroke="#CD1F1F"/>
</g>
<g id="Group 13_2">
<ellipse id="Ellipse 3_47" rx="0.855916" ry="0.847565" transform="matrix(-0.982001 0.188874 -0.192762 -0.981245 2650.72 3783.13)" fill="black"/>
<ellipse id="Ellipse 5_47" rx="0.855916" ry="0.847565" transform="matrix(-0.982001 0.188874 -0.192762 -0.981245 2660.8 3781.19)" fill="black"/>
<path id="Ellipse 4_47" d="M2650.72 3783.13C2651.06 3781.91 2654.8 3784.64 2656.19 3784.37C2657.59 3784.11 2660.02 3780.18 2660.8 3781.19" stroke="#CD1F1F"/>
</g>
<g id="Group 14_2">
<ellipse id="Ellipse 3_48" rx="0.855717" ry="0.847765" transform="matrix(-0.97089 0.239524 -0.244341 -0.969689 2647.28 3778.02)" fill="black"/>
<ellipse id="Ellipse 5_48" rx="0.855717" ry="0.847765" transform="matrix(-0.97089 0.239524 -0.244341 -0.969689 2657.25 3775.56)" fill="black"/>
<path id="Ellipse 4_48" d="M2647.28 3778.02C2647.56 3776.78 2651.44 3779.32 2652.82 3778.98C2654.2 3778.64 2656.42 3774.6 2657.25 3775.56" stroke="#CD1F1F"/>
</g>
<g id="Group 15_2">
<ellipse id="Ellipse 3_49" rx="0.855476" ry="0.848009" transform="matrix(-0.957161 0.289555 -0.29521 -0.955432 2644.45 3772.91)" fill="black"/>
<ellipse id="Ellipse 5_49" rx="0.855476" ry="0.848009" transform="matrix(-0.957161 0.289555 -0.29521 -0.955432 2654.28 3769.94)" fill="black"/>
<path id="Ellipse 4_49" d="M2644.45 3772.91C2644.66 3771.67 2648.68 3774 2650.03 3773.59C2651.39 3773.18 2653.4 3769.03 2654.28 3769.94" stroke="#CD1F1F"/>
</g>
<g id="Group 16_2">
<ellipse id="Ellipse 3_50" rx="0.855193" ry="0.848294" transform="matrix(-0.940845 0.338838 -0.345225 -0.93852 2640.51 3768.95)" fill="black"/>
<ellipse id="Ellipse 5_50" rx="0.855193" ry="0.848294" transform="matrix(-0.940845 0.338838 -0.345225 -0.93852 2650.17 3765.47)" fill="black"/>
<path id="Ellipse 4_50" d="M2640.51 3768.95C2640.66 3767.69 2644.79 3769.81 2646.12 3769.33C2647.45 3768.85 2649.24 3764.6 2650.17 3765.47" stroke="#CD1F1F"/>
</g>
<g id="Group 17_2">
<ellipse id="Ellipse 3_51" rx="0.854873" ry="0.848617" transform="matrix(-0.921979 0.38724 -0.394242 -0.919007 2636.6 3764.42)" fill="black"/>
<ellipse id="Ellipse 5_51" rx="0.854873" ry="0.848617" transform="matrix(-0.921979 0.38724 -0.394242 -0.919007 2646.06 3760.45)" fill="black"/>
<path id="Ellipse 4_51" d="M2636.6 3764.42C2636.68 3763.16 2640.92 3765.06 2642.22 3764.51C2643.53 3763.97 2645.09 3759.63 2646.06 3760.45" stroke="#CD1F1F"/>
</g>
<g id="Group 18_2">
<ellipse id="Ellipse 3_52" rx="0.854393" ry="0.8491" transform="matrix(-0.892934 0.450187 -0.457809 -0.88905 2632.18 3759.99)" fill="black"/>
<ellipse id="Ellipse 5_52" rx="0.854393" ry="0.8491" transform="matrix(-0.892934 0.450187 -0.457809 -0.88905 2641.33 3755.37)" fill="black"/>
<path id="Ellipse 4_52" d="M2632.18 3759.99C2632.17 3758.72 2636.53 3760.33 2637.79 3759.69C2639.06 3759.05 2640.31 3754.62 2641.33 3755.37" stroke="#CD1F1F"/>
</g>
<g id="Group 19_2">
<ellipse id="Ellipse 3_53" rx="0.85358" ry="0.849917" transform="matrix(-0.841286 0.540591 -0.548692 -0.836024 2626.75 3756.77)" fill="black"/>
<ellipse id="Ellipse 5_53" rx="0.85358" ry="0.849917" transform="matrix(-0.841286 0.540591 -0.548692 -0.836024 2635.37 3751.23)" fill="black"/>
<path id="Ellipse 4_53" d="M2626.75 3756.77C2626.61 3755.51 2631.12 3756.66 2632.3 3755.89C2633.49 3755.13 2634.27 3750.59 2635.37 3751.23" stroke="#CD1F1F"/>
</g>
<g id="Group 20_2">
<circle id="Ellipse 3_54" r="0.851751" transform="matrix(-0.710835 0.703358 -0.710835 -0.703358 2617.49 3751.68)" fill="black"/>
<circle id="Ellipse 5_54" r="0.851751" transform="matrix(-0.710835 0.703358 -0.710835 -0.703358 2624.76 3744.49)" fill="black"/>
<path id="Ellipse 4_54" d="M2617.49 3751.68C2617.09 3750.48 2621.73 3750.67 2622.74 3749.68C2623.74 3748.69 2623.54 3744.09 2624.76 3744.49" stroke="#CD1F1F"/>
</g>
<g id="Group 22_2">
<ellipse id="Ellipse 3_55" rx="0.850661" ry="0.852839" transform="matrix(-0.619701 0.784838 -0.791155 -0.611616 2612.3 3750.39)" fill="black"/>
<ellipse id="Ellipse 5_55" rx="0.850661" ry="0.852839" transform="matrix(-0.619701 0.784838 -0.791155 -0.611616 2618.62 3742.38)" fill="black"/>
<path id="Ellipse 4_55" d="M2612.3 3750.39C2611.75 3749.25 2616.39 3748.89 2617.26 3747.78C2618.13 3746.67 2617.37 3742.13 2618.62 3742.38" stroke="#CD1F1F"/>
</g>
<g id="Group 23_2">
<ellipse id="Ellipse 3_56" rx="0.850209" ry="0.853289" transform="matrix(-0.577646 0.816287 -0.821986 -0.569507 2607.35 3748.89)" fill="black"/>
<ellipse id="Ellipse 5_56" rx="0.850209" ry="0.853289" transform="matrix(-0.577646 0.816287 -0.821986 -0.569507 2613.25 3740.56)" fill="black"/>
<path id="Ellipse 4_56" d="M2607.35 3748.89C2606.75 3747.78 2611.36 3747.17 2612.17 3746.02C2612.98 3744.87 2611.98 3740.37 2613.25 3740.56" stroke="#CD1F1F"/>
</g>
<g id="Group 24_2">
<ellipse id="Ellipse 3_57" rx="0.849496" ry="0.853999" transform="matrix(-0.503971 0.863721 -0.8683 -0.49604 2602.19 3747.36)" fill="black"/>
<ellipse id="Ellipse 5_57" rx="0.849496" ry="0.853999" transform="matrix(-0.503971 0.863721 -0.8683 -0.49604 2607.33 3738.56)" fill="black"/>
<path id="Ellipse 4_57" d="M2602.19 3747.36C2601.49 3746.31 2606.03 3745.31 2606.74 3744.09C2607.45 3742.88 2606.06 3738.48 2607.33 3738.56" stroke="#CD1F1F"/>
</g>
<g id="Group 25_2">
<ellipse id="Ellipse 3_58" rx="0.848294" ry="0.855193" transform="matrix(-0.345225 0.93852 -0.940845 -0.338838 2598.18 3747.12)" fill="black"/>
<ellipse id="Ellipse 5_58" rx="0.848294" ry="0.855193" transform="matrix(-0.345225 0.93852 -0.940845 -0.338838 2601.7 3737.57)" fill="black"/>
<path id="Ellipse 4_58" d="M2598.18 3747.12C2597.3 3746.2 2601.6 3744.44 2602.08 3743.12C2602.57 3741.8 2600.43 3737.71 2601.7 3737.57" stroke="#CD1F1F"/>
</g>
<g id="Group 26_2">
<ellipse id="Ellipse 3_59" rx="0.847694" ry="0.855789" transform="matrix(-0.22722 0.973844 -0.974886 -0.222703 2595.59 3747.19)" fill="black"/>
<ellipse id="Ellipse 5_59" rx="0.847694" ry="0.855789" transform="matrix(-0.22722 0.973844 -0.974886 -0.222703 2597.91 3737.28)" fill="black"/>
<path id="Ellipse 4_59" d="M2595.59 3747.19C2594.61 3746.38 2598.66 3744.11 2598.97 3742.74C2599.29 3741.38 2596.66 3737.58 2597.91 3737.28" stroke="#CD1F1F"/>
</g>
<g id="Group 27_2">
<ellipse id="Ellipse 3_60" rx="0.847508" ry="0.855972" transform="matrix(-0.175438 0.98449 -0.985119 -0.171876 2593.64 3747.25)" fill="black"/>
<ellipse id="Ellipse 5_60" rx="0.847508" ry="0.855972" transform="matrix(-0.175438 0.98449 -0.985119 -0.171876 2595.43 3737.24)" fill="black"/>
<path id="Ellipse 4_60" d="M2593.64 3747.25C2592.62 3746.5 2596.54 3744.02 2596.78 3742.64C2597.03 3741.26 2594.2 3737.6 2595.43 3737.24" stroke="#CD1F1F"/>
</g>
<g id="Group 28_2">
<ellipse id="Ellipse 3_61" rx="0.847304" ry="0.856174" transform="matrix(-0.0880751 0.996114 -0.996274 -0.0862458 2592.66 3747.39)" fill="black"/>
<ellipse id="Ellipse 5_61" rx="0.847304" ry="0.856174" transform="matrix(-0.0880751 0.996114 -0.996274 -0.0862458 2593.55 3737.26)" fill="black"/>
<path id="Ellipse 4_61" d="M2592.66 3747.39C2591.57 3746.73 2595.26 3743.92 2595.38 3742.52C2595.5 3741.13 2592.37 3737.73 2593.55 3737.26" stroke="#CD1F1F"/>
</g>
<g id="Group 29_2">
<ellipse id="Ellipse 3_62" rx="0.847304" ry="0.856174" transform="matrix(-0.0880751 0.996114 -0.996274 -0.0862458 2590.88 3747.46)" fill="black"/>
<ellipse id="Ellipse 5_62" rx="0.847304" ry="0.856174" transform="matrix(-0.0880751 0.996114 -0.996274 -0.0862458 2591.77 3737.33)" fill="black"/>
<path id="Ellipse 4_62" d="M2590.88 3747.46C2589.79 3746.8 2593.47 3743.99 2593.6 3742.59C2593.72 3741.19 2590.58 3737.79 2591.77 3737.33" stroke="#CD1F1F"/>
</g>
<g id="Group 21_2">
<ellipse id="Ellipse 3_63" rx="0.852532" ry="0.850968" transform="matrix(-0.769378 0.638794 -0.646771 -0.762684 2622.37 3754.13)" fill="black"/>
<ellipse id="Ellipse 5_63" rx="0.852532" ry="0.850968" transform="matrix(-0.769378 0.638794 -0.646771 -0.762684 2630.24 3747.6)" fill="black"/>
<path id="Ellipse 4_63" d="M2622.37 3754.13C2622.07 3752.9 2626.69 3753.5 2627.77 3752.59C2628.86 3751.69 2629.07 3747.09 2630.24 3747.6" stroke="#CD1F1F"/>
</g>
</g>
</g>
<g id="Group 22_3">
<g id="Mask Group">
<path id="Ellipse 1_3" d="M3703.42 5702.46C3703.42 5779.49 3638.75 5841.96 3558.92 5841.96C3479.1 5841.96 3414.42 5779.49 3414.42 5702.46C3414.42 5625.44 3479.1 5562.96 3558.92 5562.96C3638.75 5562.96 3703.42 5625.44 3703.42 5702.46Z" fill="white" stroke="black"/>
</g>
<g id="Group 9_3">
<path id="Polygon 1" d="M3492.35 5663.59L3515.88 5702.78L3449.3 5675.75L3492.35 5663.59Z" fill="black"/>
<path id="Rectangle 1" d="M3449.03 5675.98L3515.77 5703.07L3488.88 5742.56L3440.92 5723.09L3449.03 5675.98Z" fill="black"/>
<line id="Line 101" x1="3449.21" y1="5675.52" x2="3515.95" y2="5702.61" stroke="black"/>
<line id="Line 102" y1="-0.5" x2="45.4772" y2="-0.5" transform="matrix(0.96343 -0.26796 0.111608 0.993752 3449.03 5675.98)" stroke="black"/>
<line id="Line 103" y1="-0.5" x2="44.9738" y2="-0.5" transform="matrix(-0.516701 -0.856166 0.791744 -0.610852 3516.24 5701.9)" stroke="black"/>
</g>
<g id="Group 19_3">
<path id="Polygon 1_2" d="M3612 5666.98L3661.97 5690.87L3573.65 5703.45L3612 5666.98Z" fill="black"/>
<path id="Rectangle 1_2" d="M3573.5 5703.83L3660.8 5690.94L3671.86 5742L3593.44 5753.28L3573.5 5703.83Z" fill="black"/>
<line id="Line 101_2" x1="3573.42" y1="5703.33" x2="3660.73" y2="5690.44" stroke="black"/>
<line id="Line 102_2" y1="-0.5" x2="53.8258" y2="-0.5" transform="matrix(0.727363 -0.686253 0.633817 0.773483 3573.5 5703.83)" stroke="black"/>
<line id="Line 103_2" y1="-0.5" x2="53.3021" y2="-0.5" transform="matrix(-0.900874 -0.434081 0.412781 -0.91083 3660.6 5689.55)" stroke="black"/>
</g>
<g id="Group 21_3">
<path id="Polygon 1_3" d="M3505.61 5789.43L3562.38 5793.5L3473.92 5815.46L3505.61 5789.43Z" fill="black"/>
<path id="Rectangle 1_3" d="M3473.92 5814.96L3562.38 5793.5L3593.42 5837.46L3583.42 5839.96L3572.92 5840.96L3551.92 5841.96L3529.42 5838.96L3518.92 5836.96L3508.92 5832.96L3490.92 5825.46L3473.92 5814.96Z" fill="black"/>
<path id="Line 103_3" d="M3547.42 5793.96L3505.94 5789.24" stroke="black"/>
</g>
<g id="Group 17_3">
<path id="Polygon 1_4" d="M3555.88 5575.5L3600.96 5602.25L3516.47 5606.56L3555.88 5575.5Z" fill="black"/>
<path id="Rectangle 1_4" d="M3516.28 5606.81L3600.97 5602.48L3581.42 5647.96L3530.09 5641.5L3516.28 5606.81Z" fill="black"/>
<line id="Line 101_3" x1="3516.26" y1="5606.31" x2="3600.95" y2="5601.98" stroke="black"/>
<line id="Line 102_3" y1="-0.5" x2="47.3246" y2="-0.5" transform="matrix(0.872114 -0.489303 0.683313 0.730125 3516.28 5606.81)" stroke="black"/>
<line id="Line 103_4" y1="-0.5" x2="47.0482" y2="-0.5" transform="matrix(-0.922122 -0.386899 0.633279 -0.773924 3600.92 5601.53)" stroke="black"/>
</g>
<g id="Group 20_3">
<path id="Polygon 1_5" d="M3662.42 5605.46L3671.92 5617.46L3649.48 5594.07L3662.42 5605.46Z" fill="black"/>
<path id="Rectangle 1_5" d="M3649.23 5594.11L3661.92 5604.46L3671.92 5615.46L3681.42 5628.46L3688.92 5641.46L3671.92 5652.46L3646.92 5601.96L3649.23 5594.11Z" fill="black"/>
<line id="Line 103_5" x1="3672.57" y1="5616.82" x2="3649.57" y2="5593.82" stroke="black"/>
</g>
<g id="Group 15_3">
<path id="Polygon 1_6" d="M3442.62 5619.73L3455.92 5604.96L3472.19 5592.67L3423.92 5652.46L3431.92 5635.46L3442.62 5619.73Z" fill="black"/>
<path id="Rectangle 1_6" d="M3423.42 5652.96L3471.92 5591.46L3476.02 5609.4L3439.64 5649.26L3423.42 5652.96Z" fill="black"/>
<line id="Line 101_4" x1="3433.56" y1="5637.13" x2="3471.93" y2="5594.95" stroke="black"/>
<line id="Line 103_6" y1="-0.5" x2="36.9853" y2="-0.5" transform="matrix(-0.802953 0.596043 0.314407 -0.949288 3472.62 5597.46)" stroke="black"/>
</g>
<g id="Group 10_3">
<line id="Line 104" x1="3517.17" y1="5699.72" x2="3572.95" y2="5702.96" stroke="black"/>
<line id="Line 107" x1="3506.13" y1="5788.55" x2="3547.82" y2="5793.75" stroke="black"/>
<line id="Line 106" x1="3596.32" y1="5750.77" x2="3562.77" y2="5794.31" stroke="black"/>
<line id="Line 108" y1="-0.5" x2="51" y2="-0.5" transform="matrix(-0.576154 0.817341 0.817341 0.576154 3517.2 5699.74)" stroke="black"/>
<line id="Line 109" y1="-0.5" x2="51" y2="-0.5" transform="matrix(0.357789 0.933802 0.933802 -0.357789 3487.82 5741.42)" stroke="black"/>
</g>
<g id="Group 18_3">
<line id="Line 104_2" x1="3537.87" y1="5641.42" x2="3579.56" y2="5646.62" stroke="black"/>
<line id="Line 105" x1="3579.82" y1="5646.2" x2="3612.19" y2="5666.04" stroke="black"/>
</g>
<g id="Group 16_3">
<line id="Line 107_2" x1="3475.89" y1="5608.96" x2="3515.89" y2="5605.96" stroke="black"/>
<line id="Line 105_2" x1="3529.09" y1="5565.99" x2="3555.55" y2="5575.53" stroke="black"/>
<line id="Line 109_2" x1="3530.17" y1="5641.9" x2="3492.17" y2="5663.58" stroke="black"/>
<line id="Line 108_2" x1="3591.06" y1="5566.94" x2="3556.51" y2="5576.48" stroke="black"/>
<line id="Line 111" x1="3646.94" y1="5601.96" x2="3599.94" y2="5602.96" stroke="black"/>
</g>
<g id="Group 13_3">
<line id="Line 104_3" y1="-0.5" x2="28.2312" y2="-0.5" transform="matrix(0.38964 0.920967 -0.904649 0.426157 3437.92 5649.46)" stroke="black"/>
</g>
<g id="Group 12_3">
<line id="Line 104_4" x1="3443.79" y1="5721.21" x2="3486.16" y2="5738.29" stroke="black"/>
<line id="Line 105_3" x1="3486.62" y1="5738.13" x2="3505.39" y2="5789.29" stroke="black"/>
<line id="Line 106_2" x1="3506.27" y1="5788.85" x2="3473.24" y2="5815.85" stroke="black"/>
<path id="Line 108_3" d="M3443.45 5720.85L3419.42 5738.96" stroke="black"/>
</g>
<line id="Line 111_2" x1="3454.54" y1="5613.15" x2="3471.54" y2="5592.15" stroke="black"/>
<line id="Line 112" x1="3453.61" y1="5607.08" x2="3470.61" y2="5593.08" stroke="black"/>
<path id="Line 113" d="M3670.42 5740.46L3688.19 5764.04" stroke="black"/>
<path id="Line 114" d="M3660.42 5690.46L3671.5 5651.19" stroke="black"/>
<line id="Line 115" x1="3670.42" y1="5624.44" x2="3671.42" y2="5651.44" stroke="black"/>
</g>
<g id="Group 4_3">
<g id="Exclude">
<mask id="path-242-inside-1" fill="white">
<path d="M3195.54 2675.25C3229.67 2728.81 3161.55 2846.35 3084.76 2895.3C3007.98 2944.25 2884.25 2949 2850.11 2895.45C2815.97 2841.9 2887.53 2722.16 2964.32 2673.22C3041.1 2624.27 3161.4 2621.7 3195.54 2675.25Z"/>
</mask>
<path d="M3195.54 2675.25C3229.67 2728.81 3161.55 2846.35 3084.76 2895.3C3007.98 2944.25 2884.25 2949 2850.11 2895.45C2815.97 2841.9 2887.53 2722.16 2964.32 2673.22C3041.1 2624.27 3161.4 2621.7 3195.54 2675.25Z" fill="#964B00"/>
<path d="M3194.69 2675.79C3203.05 2688.91 3205.2 2706.03 3202.44 2725.2C3199.67 2744.37 3192.01 2765.51 3180.86 2786.54C3158.57 2828.61 3122.45 2870.09 3084.23 2894.46L3085.3 2896.14C3123.86 2871.56 3160.2 2829.8 3182.63 2787.47C3193.85 2766.3 3201.61 2744.95 3204.42 2725.49C3207.22 2706.03 3205.09 2688.38 3196.38 2674.72L3194.69 2675.79ZM3084.23 2894.46C3046.01 2918.82 2996.06 2932.2 2951.43 2932.81C2906.72 2933.42 2867.73 2921.23 2850.95 2894.91L2849.27 2895.99C2866.63 2923.22 2906.57 2935.43 2951.46 2934.81C2996.42 2934.2 3046.74 2920.73 3085.3 2896.14L3084.23 2894.46ZM2850.95 2894.91C2842.6 2881.81 2840.66 2864.56 2843.74 2845.17C2846.83 2825.8 2854.92 2804.39 2866.5 2783.08C2889.65 2740.46 2926.63 2698.43 2964.85 2674.06L2963.78 2672.37C2925.22 2696.95 2888.03 2739.26 2864.74 2782.13C2853.09 2803.57 2844.9 2825.2 2841.77 2844.86C2838.64 2864.52 2840.55 2882.32 2849.27 2895.99L2850.95 2894.91ZM2964.85 2674.06C3003.07 2649.7 3052.15 2636.86 3095.92 2636.8C3139.76 2636.73 3177.91 2649.46 3194.69 2675.79L3196.38 2674.72C3179.03 2647.5 3139.96 2634.73 3095.92 2634.8C3051.81 2634.87 3002.35 2647.79 2963.78 2672.37L2964.85 2674.06Z" fill="black" mask="url(#path-242-inside-1)"/>
</g>
<path id="Ellipse 2_3" d="M3195.85 2676.69C3154.09 2633.9 3074.56 2661.74 2988.71 2716.46C2902.87 2771.18 2829.84 2850.4 2850.85 2896.61" stroke="black"/>
<g id="Group 4_4">
<g id="Ellipse 4_64">
<path d="M3049.23 2683.6C3046.55 2685.3 3011.78 2698.49 2984.55 2715.85C2957.32 2733.2 2929.62 2759.84 2923.59 2766.95" stroke="white" stroke-width="6"/>
<path d="M3049.23 2683.6C3046.55 2685.3 3011.78 2698.49 2984.55 2715.85C2957.32 2733.2 2929.62 2759.84 2923.59 2766.95" stroke="url(#paint0_radial)" stroke-width="6"/>
</g>
<g id="Ellipse 5_64">
<path d="M2925.49 2740.43C2925.96 2741.16 2929.75 2750.58 2934.51 2758.04C2939.26 2765.5 2946.39 2773.21 2948.27 2774.9" stroke="white" stroke-width="6"/>
<path d="M2925.49 2740.43C2925.96 2741.16 2929.75 2750.58 2934.51 2758.04C2939.26 2765.5 2946.39 2773.21 2948.27 2774.9" stroke="url(#paint1_radial)" stroke-width="6"/>
</g>
<g id="Ellipse 10">
<path d="M3049.27 2707.25C3048.8 2706.51 3045.01 2697.1 3040.26 2689.64C3035.5 2682.17 3028.38 2674.47 3026.49 2672.78" stroke="white" stroke-width="6"/>
<path d="M3049.27 2707.25C3048.8 2706.51 3045.01 2697.1 3040.26 2689.64C3035.5 2682.17 3028.38 2674.47 3026.49 2672.78" stroke="url(#paint2_radial)" stroke-width="6"/>
</g>
<g id="Ellipse 11">
<path d="M3035.66 2714.29C3035.19 2713.56 3031.4 2704.14 3026.65 2696.68C3021.89 2689.22 3014.76 2681.51 3012.88 2679.82" stroke="white" stroke-width="6"/>
<path d="M3035.66 2714.29C3035.19 2713.56 3031.4 2704.14 3026.65 2696.68C3021.89 2689.22 3014.76 2681.51 3012.88 2679.82" stroke="url(#paint3_radial)" stroke-width="6"/>
</g>
<g id="Ellipse 6">
<path d="M2940.1 2727.85C2940.57 2728.58 2944.36 2738 2949.12 2745.46C2953.87 2752.92 2961 2760.63 2962.88 2762.32" stroke="white" stroke-width="6"/>
<path d="M2940.1 2727.85C2940.57 2728.58 2944.36 2738 2949.12 2745.46C2953.87 2752.92 2961 2760.63 2962.88 2762.32" stroke="url(#paint4_radial)" stroke-width="6"/>
</g>
<g id="Ellipse 7">
<path d="M2955.74 2716.25C2956.21 2716.98 2960.78 2725.9 2965.54 2733.36C2970.3 2740.82 2976.63 2749.03 2978.23 2750.9" stroke="white" stroke-width="6"/>
<path d="M2955.74 2716.25C2956.21 2716.98 2960.78 2725.9 2965.54 2733.36C2970.3 2740.82 2976.63 2749.03 2978.23 2750.9" stroke="url(#paint5_radial)" stroke-width="6"/>
</g>
<g id="Ellipse 8">
<path d="M2971.83 2705.99C2972.3 2706.72 2976.87 2715.64 2981.63 2723.1C2986.39 2730.56 2992.73 2738.77 2994.32 2740.64" stroke="white" stroke-width="6"/>
<path d="M2971.83 2705.99C2972.3 2706.72 2976.87 2715.64 2981.63 2723.1C2986.39 2730.56 2992.73 2738.77 2994.32 2740.64" stroke="url(#paint6_radial)" stroke-width="6"/>
</g>
<g id="Ellipse 9">
<path d="M3008.56 2731.57C3008.09 2730.84 3003.51 2721.92 2998.75 2714.46C2994 2707 2987.66 2698.79 2986.06 2696.92" stroke="white" stroke-width="6"/>
<path d="M3008.56 2731.57C3008.09 2730.84 3003.51 2721.92 2998.75 2714.46C2994 2707 2987.66 2698.79 2986.06 2696.92" stroke="url(#paint7_radial)" stroke-width="6"/>
</g>
<g id="Ellipse 12">
<path d="M3023.57 2722C3023.11 2721.26 3018.53 2712.35 3013.77 2704.89C3009.02 2697.43 3002.68 2689.22 3001.08 2687.34" stroke="white" stroke-width="6"/>
<path d="M3023.57 2722C3023.11 2721.26 3018.53 2712.35 3013.77 2704.89C3009.02 2697.43 3002.68 2689.22 3001.08 2687.34" stroke="url(#paint8_radial)" stroke-width="6"/>
</g>
</g>
<path id="Ellipse 3_64" d="M3195.91 2675.84C3224.6 2743.59 3173.26 2812.76 3087.31 2867.55C3001.35 2922.34 2889.99 2944.74 2850.48 2896.03" stroke="black"/>
<g id="Group 1_3">
<path id="Line 1" d="M2859.47 2795.58C2890.02 2851.92 2909.87 2881.35 2946.82 2932.61" stroke="black"/>
<path id="Line 2" d="M2868.02 2778.7C2901.38 2842.24 2923.75 2875.06 2965.73 2931.98" stroke="black"/>
</g>
<g id="Group 2_3">
<path id="Line 1_2" d="M3100.98 2636.73C3139.15 2688.21 3157.45 2718.62 3188.33 2773.76" stroke="black"/>
<path id="Line 2_2" d="M3082.06 2637.35C3125.58 2694.42 3145.89 2728.55 3179.78 2790.64" stroke="black"/>
</g>
</g>
<g id="Puck">
<rect id="Rectangle 1_7" x="2953.5" y="3009.76" width="117.115" height="34.2649" transform="rotate(-43.6598 2953.5 3009.76)" fill="#616161"/>
<ellipse id="Ellipse 2_4" cx="3018.45" cy="2992.99" rx="58.5577" ry="23.3624" transform="rotate(-43.6598 3018.45 2992.99)" fill="#616161"/>
<path id="Ellipse 1_4" d="M3037.87 2929.25C3039.97 2931.45 3040.89 2934.65 3040.68 2938.63C3040.47 2942.61 3039.13 2947.33 3036.77 2952.49C3032.06 2962.79 3023.32 2974.74 3011.65 2985.87C2999.99 2997 2987.64 3005.17 2977.13 3009.4C2971.87 3011.52 2967.1 3012.63 2963.11 3012.66C2959.12 3012.68 2955.97 3011.61 2953.87 3009.41C2951.77 3007.21 2950.85 3004.01 2951.05 3000.03C2951.26 2996.04 2952.6 2991.32 2954.96 2986.17C2959.68 2975.87 2968.42 2963.92 2980.08 2952.79C2991.75 2941.66 3004.09 2933.48 3014.61 2929.25C3019.86 2927.14 3024.64 2926.02 3028.63 2926C3032.62 2925.98 3035.77 2927.04 3037.87 2929.25Z" fill="#616161" stroke="black"/>
<line id="Line 1_3" x1="2953.87" y1="3009.41" x2="2977.25" y2="3033.92" stroke="black"/>
<line id="Line 2_3" x1="3038.39" y1="2928.75" x2="3062.04" y2="2953.54" stroke="black"/>
<path id="Ellipse 5_65" d="M3061.78 2953.79C3067.45 2961.88 3061.08 2983.26 3034.92 3009.57C3006.63 3035.22 2985.83 3040.53 2976.99 3034.16" stroke="black"/>
</g>
<g id="Figure">
<g id="Group 7_3">
<rect id="Rectangle 3" width="122.807" height="165.057" transform="matrix(0.983425 -0.181313 -0.181313 -0.983425 3232.37 5913.61)" fill="#DFBC92"/>
<ellipse id="Ellipse 20" rx="61.4037" ry="72.2126" transform="matrix(0.983425 -0.181313 -0.181313 -0.983425 3263.95 5746.24)" fill="#DFBC92"/>
</g>
<g id="Group 6_3">
<rect id="Rectangle 3_2" width="122.807" height="196.006" transform="matrix(0.983425 -0.181313 -0.181313 -0.983425 2790.41 6200.69)" fill="#DFBC92"/>
<ellipse id="Ellipse 20_2" rx="61.4037" ry="85.7525" transform="matrix(0.983425 -0.181313 -0.181313 -0.983425 2816.59 6004.03)" fill="#DFBC92"/>
</g>
<path id="Rectangle 5" d="M2758.54 5124.71L2964.38 5116.13L3242.5 5441.79L3363.77 5811.06L3198.65 5856.18L3088.18 5470.24L2758.54 5124.71Z" fill="#394B89"/>
<path id="Rectangle 4" d="M2568.27 5296.85L2774.12 5288.27L2976.96 5657.19L2915.52 6055.24L2719.93 6091.31L2798.92 5690.01L2568.27 5296.85Z" fill="#394B89"/>
<g id="Head">
<path id="Ellipse 11_2" d="M2370.22 4334.43C2330.89 4403.15 2233.47 4414.33 2210.67 4399.69C2187.86 4385.05 2201.26 4317.48 2240.6 4248.77C2279.93 4180.05 2330.3 4136.22 2353.11 4150.85C2375.91 4165.49 2409.56 4265.72 2370.22 4334.43Z" fill="#DA0505"/>
<ellipse id="Ellipse 1_5" cx="2606.03" cy="4224.97" rx="282.002" ry="257.558" transform="rotate(-0.507514 2606.03 4224.97)" fill="#DFBC92"/>
<ellipse id="Ellipse 7_2" cx="2633.96" cy="4296.94" rx="45.4842" ry="40.9205" transform="rotate(-0.507514 2633.96 4296.94)" fill="#EBE3E3"/>
<g id="LeftEye">
<ellipse id="Ellipse 2_5" cx="2468.94" cy="4153.97" rx="45.4842" ry="40.9205" transform="rotate(-0.507514 2468.94 4153.97)" fill="#EBE3E3"/>
<ellipse id="Ellipse 5_66" cx="2468.75" cy="4132.31" rx="31.839" ry="14.4425" transform="rotate(-0.507514 2468.75 4132.31)" fill="#578989"/>
<ellipse id="Ellipse 8_2" cx="2468.71" cy="4127.49" rx="13.6453" ry="9.62835" transform="rotate(-0.507514 2468.71 4127.49)" fill="black"/>
</g>
<g id="RightEye">
<ellipse id="Ellipse 2_6" cx="2741.45" cy="4108.23" rx="45.4842" ry="40.9205" transform="rotate(-0.507514 2741.45 4108.23)" fill="#EBE3E3"/>
<ellipse id="Ellipse 5_67" cx="2741.26" cy="4086.56" rx="31.839" ry="14.4425" transform="rotate(-0.507514 2741.26 4086.56)" fill="#578989"/>
<ellipse id="Ellipse 8_3" cx="2741.22" cy="4081.75" rx="13.6453" ry="9.62835" transform="rotate(-0.507514 2741.22 4081.75)" fill="black"/>
</g>
<path id="Ellipse 12_2" d="M2715.68 3843.57C2813.15 3851.62 2799.7 4008.82 2797.58 4037.93C2785.63 4049.91 2715.43 4029.89 2609.2 4048.56C2419.11 4099.2 2358.61 4179.93 2330.02 4217.48C2244.9 4268.66 2299.63 3809.21 2715.68 3843.57Z" fill="#EB2323"/>
<g id="Group 1_4">
<rect id="Rectangle 1_8" width="194.16" height="9.05438" transform="matrix(0.979888 -0.199549 0.12841 0.991721 2479.27 4026.11)" fill="#791E1E"/>
<path id="Intersect" fill-rule="evenodd" clip-rule="evenodd" d="M2559.78 3914.53C2652.92 3901.67 2663.53 3945.21 2668.96 3987.11C2669 3987.45 2669.04 3987.78 2669.08 3988.12L2479.28 4026.76C2479.18 4026.52 2479.08 4026.27 2478.98 4026.02L2474.69 3992.95C2479.65 3957 2514.34 3923.78 2559.78 3914.53Z" fill="#791E1E"/>
</g>
<g id="Hairs">
<path id="Ellipse 16" d="M2598.99 3943.53C2599.27 3975.36 2579.13 4001.34 2554.01 4001.57C2528.89 4001.79 2568.98 3979.23 2568.69 3947.4C2568.41 3915.57 2401.33 3884.04 2552.99 3886.3C2578.11 3886.08 2598.7 3911.7 2598.99 3943.53Z" fill="#791E1E"/>
<path id="Ellipse 17" d="M2576.42 3962.99C2576.7 3994.82 2556.56 4020.8 2531.44 4021.02C2506.32 4021.25 2546.41 3998.69 2546.12 3966.86C2545.84 3935.03 2378.76 3903.5 2530.42 3905.76C2555.54 3905.53 2576.13 3931.16 2576.42 3962.99Z" fill="#791E1E"/>
<path id="Ellipse 19" d="M2562.79 3965.46C2562.97 3985.36 2542.75 4001.66 2517.62 4001.89C2492.5 4002.11 2532.66 3987.88 2532.49 3967.98C2532.31 3948.09 2365.34 3928.94 2516.99 3929.85C2542.11 3929.62 2562.62 3945.57 2562.79 3965.46Z" fill="#791E1E"/>
<path id="Ellipse 18" d="M2653.44 3928.6C2653.72 3960.43 2628.49 3986.46 2597.09 3986.74C2565.69 3987.02 2615.85 3964.37 2615.56 3932.54C2615.28 3900.71 2406.51 3869.55 2596.07 3871.48C2627.47 3871.2 2653.16 3896.77 2653.44 3928.6Z" fill="#791E1E"/>
</g>
</g>
<g id="Group 3_3">
<rect id="Rectangle 3_3" width="495.778" height="557.069" rx="10" transform="matrix(0.983425 -0.181313 -0.181313 -0.983425 2577 5344.2)" fill="#726A24"/>
<ellipse id="Ellipse 20_3" rx="247.889" ry="243.718" transform="matrix(0.983425 -0.181313 -0.181313 -0.983425 2723.56 4771.96)" fill="#726A24"/>
</g>
<g id="Group 2_4">
<rect id="Rectangle 3_4" x="2572.4" y="4365.98" width="141.001" height="192.567" transform="rotate(-10.4462 2572.4 4365.98)" fill="#DFBC92"/>
<ellipse id="Ellipse 20_4" cx="2675.34" cy="4535.47" rx="70.5005" ry="84.2481" transform="rotate(-10.4462 2675.34 4535.47)" fill="#DFBC92"/>
</g>
<g id="Group 4_5">
<g id="right arm">
<ellipse id="Ellipse 20_5" cx="3272.92" cy="4308.91" rx="70.6168" ry="84.1217" transform="matrix(0.981807 -0.173104 0.189883 0.984904 -758.643 631.606)" fill="#DFBC92"/>
<path id="Rectangle 3_5" d="M3179.94 4299.13L3278.68 4407.77L3150.96 4600.64L2959.73 4729.52L2861 4620.88L3048.18 4494.75L3179.94 4299.13Z" fill="#726A24"/>
</g>
</g>
<g id="Group 5_3">
<g id="right arm_2">
<ellipse id="Ellipse 20_6" rx="72.2925" ry="82.2895" transform="matrix(-0.955323 0.196052 -0.203649 -1.00332 2181.35 5142.02)" fill="#DFBC92"/>
<path id="Rectangle 3_6" d="M2274.45 5149.94L2173.81 5043.25L2298 4847.79L2486.79 4715.05L2587.43 4821.73L2402.62 4951.63L2274.45 5149.94Z" fill="#726A24"/>
</g>
</g>
<g id="Group 8_3">
<path id="Ellipse 26" d="M2824.86 6111.27C2898.74 6124.12 2833.22 6003.12 2987.43 6095.62C3443.12 6252.47 2859.52 6218.2 2796.71 6214.39C2711.31 6209.21 2744.67 6144.65 2760.07 6101.77C2763.33 6065.36 2762.05 6107.46 2824.86 6111.27Z" fill="#2B3A70"/>
<path id="Ellipse 2_7" d="M3153.29 6175.36C3148.19 6182.34 3061.83 6191.01 2949.27 6193.09C2836.71 6195.17 2746.25 6187.88 2741.38 6181.27" stroke="#94E345"/>
<line id="Line 1_4" y1="-1" x2="48.2104" y2="-1" transform="matrix(-0.59106 0.806628 -0.839854 -0.542812 2982.91 6105.72)" stroke="#94E345" stroke-width="2"/>
<line id="Line 2_4" y1="-1" x2="48.2104" y2="-1" transform="matrix(-0.59106 0.806628 -0.839854 -0.542812 3008.57 6115.94)" stroke="#94E345" stroke-width="2"/>
<line id="Line 3" y1="-1" x2="48.2104" y2="-1" transform="matrix(-0.59106 0.806628 -0.839854 -0.542812 3034.23 6126.15)" stroke="#94E345" stroke-width="2"/>
</g>
<g id="Group 9_4">
<path id="Ellipse 26_2" d="M3282.18 5886.97C3357.1 5883.85 3267.4 5779.51 3437.73 5837.19C3916.32 5893.78 3338.74 5984.11 3276.55 5993.72C3192 6006.77 3210.9 5936.61 3216.85 5891.43C3212.32 5855.16 3219.99 5896.57 3282.18 5886.97Z" fill="#2B3A70"/>
<path id="Ellipse 2_8" d="M3618.96 5883.66C3615.35 5891.51 3532.41 5917.11 3422.49 5941.44C3312.58 5965.77 3222.46 5976.54 3216.38 5971.03" stroke="#94E345"/>
<line id="Line 1_5" y1="-1" x2="48.2104" y2="-1" transform="matrix(-0.406462 0.913668 -0.935901 -0.352263 3435.45 5848.01)" stroke="#94E345" stroke-width="2"/>
<line id="Line 2_5" y1="-1" x2="48.2104" y2="-1" transform="matrix(-0.406462 0.913668 -0.935901 -0.352263 3462.7 5852.55)" stroke="#94E345" stroke-width="2"/>
<line id="Line 3_2" y1="-1" x2="48.2104" y2="-1" transform="matrix(-0.406462 0.913668 -0.935901 -0.352263 3489.94 5857.09)" stroke="#94E345" stroke-width="2"/>
</g>
</g>
<g id="tennis racket">
<rect id="Rectangle 5_2" x="-1.475" y="2.41019" width="19.1268" height="147.699" transform="matrix(0.234956 0.972006 -0.972455 0.23309 3384.54 4148.61)" fill="white" stroke="black" stroke-width="4"/>
<rect id="Rectangle 6" x="-1.475" y="2.41019" width="19.1268" height="207.465" transform="matrix(0.234956 0.972006 -0.972455 0.23309 3411.66 4119.5)" fill="white" stroke="black" stroke-width="4"/>
<rect id="Rectangle 7" x="-1.475" y="2.41019" width="19.1268" height="241.782" transform="matrix(0.234956 0.972006 -0.972455 0.23309 3420.6 4095.73)" fill="white" stroke="black" stroke-width="4"/>
<rect id="Rectangle 8" x="-1.475" y="2.41019" width="19.1268" height="268.624" transform="matrix(0.234956 0.972006 -0.972455 0.23309 3428.34 4072.15)" fill="white" stroke="black" stroke-width="4"/>
<rect id="Rectangle 9" x="-1.475" y="2.41019" width="19.1268" height="281.446" transform="matrix(0.234956 0.972006 -0.972455 0.23309 3434.34 4049.23)" fill="white" stroke="black" stroke-width="4"/>
<rect id="Rectangle 10" x="-1.475" y="2.41019" width="19.1268" height="317.636" transform="matrix(0.234956 0.972006 -0.972455 0.23309 3442.69 4026.07)" fill="white" stroke="black" stroke-width="4"/>
<rect id="Rectangle 11" x="-1.475" y="2.41019" width="19.1268" height="317.636" transform="matrix(0.234956 0.972006 -0.972455 0.23309 3438.45 4006.71)" fill="white" stroke="black" stroke-width="4"/>
<rect id="Rectangle 12" x="-1.475" y="2.41019" width="19.1268" height="369.457" transform="matrix(0.234956 0.972006 -0.972455 0.23309 3460.5 3980.14)" fill="white" stroke="black" stroke-width="4"/>
<rect id="Rectangle 13" x="-1.475" y="2.41019" width="19.1268" height="369.457" transform="matrix(0.234956 0.972006 -0.972455 0.23309 3453.87 3963.07)" fill="white" stroke="black" stroke-width="4"/>
<rect id="Rectangle 14" x="-1.475" y="2.41019" width="19.1268" height="369.457" transform="matrix(0.234956 0.972006 -0.972455 0.23309 3451.02 3941.67)" fill="white" stroke="black" stroke-width="4"/>
<rect id="Rectangle 15" x="-1.475" y="2.41019" width="19.1268" height="369.457" transform="matrix(0.234956 0.972006 -0.972455 0.23309 3443.74 3922.75)" fill="white" stroke="black" stroke-width="4"/>
<rect id="Rectangle 16" x="-1.475" y="2.41019" width="19.1268" height="369.457" transform="matrix(0.234956 0.972006 -0.972455 0.23309 3438.08 3904.87)" fill="white" stroke="black" stroke-width="4"/>
<rect id="Rectangle 17" x="-1.475" y="2.41019" width="19.1268" height="369.457" transform="matrix(0.234956 0.972006 -0.972455 0.23309 3435.48 3883.59)" fill="white" stroke="black" stroke-width="4"/>
<rect id="Rectangle 18" x="-1.475" y="2.41019" width="19.1268" height="369.457" transform="matrix(0.234956 0.972006 -0.972455 0.23309 3428.1 3865.53)" fill="white" stroke="black" stroke-width="4"/>
<rect id="Rectangle 19" x="-1.475" y="2.41019" width="19.1268" height="369.457" transform="matrix(0.234956 0.972006 -0.972455 0.23309 3420.61 3847.72)" fill="white" stroke="black" stroke-width="4"/>
<rect id="Rectangle 20" x="-1.475" y="2.41019" width="19.1268" height="382.065" transform="matrix(0.234956 0.972006 -0.972455 0.23309 3426.06 3825.47)" fill="white" stroke="black" stroke-width="4"/>
<rect id="Rectangle 21" x="-1.475" y="2.41019" width="19.1268" height="382.065" transform="matrix(0.234956 0.972006 -0.972455 0.23309 3424.68 3804.59)" fill="white" stroke="black" stroke-width="4"/>
<rect id="Rectangle 22" x="-1.475" y="2.41019" width="19.1268" height="382.065" transform="matrix(0.234956 0.972006 -0.972455 0.23309 3417.53 3786.03)" fill="white" stroke="black" stroke-width="4"/>
<rect id="Rectangle 23" x="-1.475" y="2.41019" width="19.1268" height="382.065" transform="matrix(0.234956 0.972006 -0.972455 0.23309 3411.49 3767.68)" fill="white" stroke="black" stroke-width="4"/>
<rect id="Rectangle 24" x="-1.475" y="2.41019" width="19.1268" height="382.065" transform="matrix(0.234956 0.972006 -0.972455 0.23309 3404.8 3748.13)" fill="white" stroke="black" stroke-width="4"/>
<rect id="Rectangle 25" x="-1.475" y="2.41019" width="19.1268" height="337.08" transform="matrix(0.234956 0.972006 -0.972455 0.23309 3381.47 3734.55)" fill="white" stroke="black" stroke-width="4"/>
<rect id="Rectangle 26" x="-1.475" y="2.41019" width="19.1268" height="337.08" transform="matrix(0.234956 0.972006 -0.972455 0.23309 3374.28 3715.6)" fill="white" stroke="black" stroke-width="4"/>
<rect id="Rectangle 27" x="-1.475" y="2.41019" width="19.1268" height="337.08" transform="matrix(0.234956 0.972006 -0.972455 0.23309 3373.3 3695.36)" fill="white" stroke="black" stroke-width="4"/>
<rect id="Rectangle 28" x="-1.475" y="2.41019" width="19.1268" height="337.08" transform="matrix(0.234956 0.972006 -0.972455 0.23309 3367.67 3674.79)" fill="white" stroke="black" stroke-width="4"/>
<rect id="Rectangle 29" x="-1.475" y="2.41019" width="19.1268" height="276.323" transform="matrix(0.234956 0.972006 -0.972455 0.23309 3333.81 3661.7)" fill="white" stroke="black" stroke-width="4"/>
<rect id="Rectangle 30" x="-1.475" y="2.41019" width="19.1268" height="276.323" transform="matrix(0.234956 0.972006 -0.972455 0.23309 3329.04 3644.25)" fill="white" stroke="black" stroke-width="4"/>
<rect id="Rectangle 31" x="-1.475" y="2.41019" width="19.1268" height="248.43" transform="matrix(0.234956 0.972006 -0.972455 0.23309 3315.99 3624.8)" fill="white" stroke="black" stroke-width="4"/>
<rect id="Rectangle 32" x="-1.475" y="2.41019" width="19.1268" height="185.576" transform="matrix(0.234956 0.972006 -0.972455 0.23309 3275.42 3611.94)" fill="white" stroke="black" stroke-width="4"/>
<rect id="Rectangle 33" x="-1.475" y="2.41019" width="19.1268" height="137.21" transform="matrix(0.234956 0.972006 -0.972455 0.23309 3246.93 3597.33)" fill="white" stroke="black" stroke-width="4"/>
<g id="Puck_2">
<rect id="Rectangle 1_9" width="111.975" height="12.0452" transform="matrix(-0.965737 0.259524 -0.2614 -0.965231 3080.28 3038.87)" fill="#94E345"/>
<ellipse id="Ellipse 2_9" rx="55.9876" ry="8.21266" transform="matrix(-0.965737 0.259524 -0.2614 -0.965231 3023.2 3042.31)" fill="#94E345"/>
<path id="Ellipse 1_6" d="M2972.62 3067.8C2972.54 3067.5 2972.64 3067.03 2973.19 3066.36C2973.73 3065.7 2974.61 3064.95 2975.83 3064.12C2978.27 3062.46 2981.97 3060.56 2986.66 3058.53C2996.02 3054.48 3009.28 3049.97 3024.19 3045.96C3039.11 3041.95 3052.84 3039.21 3062.98 3038.02C3068.06 3037.42 3072.21 3037.22 3075.16 3037.43C3076.63 3037.53 3077.78 3037.74 3078.57 3038.04C3079.38 3038.34 3079.71 3038.69 3079.79 3039C3079.88 3039.31 3079.77 3039.78 3079.22 3040.45C3078.69 3041.11 3077.8 3041.86 3076.58 3042.69C3074.14 3044.35 3070.45 3046.25 3065.76 3048.28C3056.39 3052.33 3043.14 3056.84 3028.22 3060.85C3013.31 3064.86 2999.58 3067.6 2989.43 3068.79C2984.36 3069.38 2980.2 3069.59 2977.26 3069.38C2975.78 3069.27 2974.64 3069.07 2973.84 3068.77C2973.03 3068.46 2972.7 3068.11 2972.62 3067.8Z" fill="#94E345" stroke="black"/>
<line id="Line 1_6" y1="-0.5" x2="11.9084" y2="-0.5" transform="matrix(-0.2614 -0.965231 0.965737 -0.259524 3080.28 3038.87)" stroke="black"/>
<line id="Line 2_6" y1="-0.5" x2="12.0452" y2="-0.5" transform="matrix(-0.2614 -0.965231 0.965737 -0.259524 2972.4 3067.86)" stroke="black"/>
<path id="Ellipse 5_68" d="M2969.12 3056.27C2969.6 3052.59 2986.46 3044.03 3020.62 3034.5C3055.96 3025.35 3074.2 3024.28 3077.03 3027.41" stroke="black"/>
</g>
<rect id="Rectangle 2" x="-0.349904" y="0.613673" width="463.663" height="82.8413" rx="41.4206" transform="matrix(0.264964 0.964258 -0.964772 0.263088 3068.38 3039.1)" fill="#2E510C" stroke="black"/>
<rect id="Rectangle 3_7" x="-0.577308" y="0.40771" width="155.903" height="22.846" rx="11.423" transform="matrix(-0.1692 0.985582 -0.985416 -0.170161 3137.14 3498.38)" fill="#2E510C" stroke="black"/>
<rect id="Rectangle 4_2" x="-0.0982184" y="0.699661" width="154.833" height="22.8126" rx="11.4063" transform="matrix(0.602602 0.798042 -0.799039 0.601279 3179 3481.66)" fill="#2E510C" stroke="black"/>
<g id="Puck_3">
<rect id="Rectangle 1_10" width="111.975" height="12.0452" transform="matrix(-0.965737 0.259524 -0.2614 -0.965231 3205.14 3481.96)" fill="#94E345"/>
<ellipse id="Ellipse 2_10" rx="55.9876" ry="8.21266" transform="matrix(-0.965737 0.259524 -0.2614 -0.965231 3148.07 3485.39)" fill="#94E345"/>
<path id="Ellipse 1_7" d="M3097.49 3510.89C3097.4 3510.58 3097.51 3510.11 3098.06 3509.44C3098.59 3508.79 3099.47 3508.04 3100.7 3507.2C3103.14 3505.55 3106.83 3503.64 3111.52 3501.62C3120.89 3497.56 3134.14 3493.05 3149.06 3489.04C3163.97 3485.04 3177.7 3482.3 3187.85 3481.11C3192.92 3480.51 3197.07 3480.3 3200.02 3480.51C3201.5 3480.62 3202.64 3480.83 3203.43 3481.12C3204.25 3481.43 3204.57 3481.78 3204.66 3482.09C3204.74 3482.4 3204.64 3482.86 3204.09 3483.53C3203.55 3484.19 3202.67 3484.94 3201.45 3485.77C3199 3487.43 3195.31 3489.33 3190.62 3491.36C3181.26 3495.41 3168 3499.93 3153.09 3503.93C3138.17 3507.94 3124.44 3510.68 3114.3 3511.87C3109.22 3512.47 3105.07 3512.67 3102.12 3512.46C3100.64 3512.36 3099.5 3512.15 3098.71 3511.85C3097.9 3511.55 3097.57 3511.2 3097.49 3510.89Z" fill="#94E345" stroke="black"/>
<line id="Line 1_7" y1="-0.5" x2="11.9084" y2="-0.5" transform="matrix(-0.2614 -0.965231 0.965737 -0.259524 3205.14 3481.96)" stroke="black"/>
<line id="Line 2_7" y1="-0.5" x2="12.0452" y2="-0.5" transform="matrix(-0.2614 -0.965231 0.965737 -0.259524 3097.27 3510.95)" stroke="black"/>
<path id="Ellipse 5_69" d="M3093.99 3499.36C3094.46 3495.68 3111.33 3487.11 3145.48 3477.58C3180.82 3468.44 3199.07 3467.36 3201.9 3470.5" stroke="black"/>
</g>
<rect id="Rectangle 34" x="2.4029" y="1.49711" width="340.472" height="18.7476" transform="matrix(0.227163 0.973857 0.974289 -0.2253 3366.22 3705.3)" stroke="black" stroke-width="4"/>
<rect id="Rectangle 35" x="2.4029" y="1.49711" width="406.921" height="18.7476" transform="matrix(0.227163 0.973857 0.974289 -0.2253 3336.15 3670.56)" stroke="black" stroke-width="4"/>
<rect id="Rectangle 36" x="2.4029" y="1.49711" width="473.509" height="18.7476" transform="matrix(0.227163 0.973857 0.974289 -0.2253 3306.66 3640.55)" stroke="black" stroke-width="4"/>
<rect id="Rectangle 37" x="2.4029" y="1.49711" width="518.867" height="18.7476" transform="matrix(0.227163 0.973857 0.974289 -0.2253 3279.84 3622.6)" stroke="black" stroke-width="4"/>
<rect id="Rectangle 38" x="2.4029" y="1.49711" width="561.948" height="18.7476" transform="matrix(0.227163 0.973857 0.974289 -0.2253 3254.54 3608.58)" stroke="black" stroke-width="4"/>
<rect id="Rectangle 39" x="2.4029" y="1.49711" width="586.167" height="18.7476" transform="matrix(0.227163 0.973857 0.974289 -0.2253 3230.61 3603.19)" stroke="black" stroke-width="4"/>
<rect id="Rectangle 40" x="2.4029" y="1.49711" width="586.167" height="18.7476" transform="matrix(0.227163 0.973857 0.974289 -0.2253 3209.38 3608.94)" stroke="black" stroke-width="4"/>
<rect id="Rectangle 41" x="2.4029" y="1.49711" width="623.13" height="18.7476" transform="matrix(0.227163 0.973857 0.974289 -0.2253 3184.21 3597.02)" stroke="black" stroke-width="4"/>
<rect id="Rectangle 42" x="2.4029" y="1.49711" width="632.745" height="18.7476" transform="matrix(0.227163 0.973857 0.974289 -0.2253 3162.63 3598.71)" stroke="black" stroke-width="4"/>
<rect id="Rectangle 43" x="2.4029" y="1.49711" width="593.392" height="18.7476" transform="matrix(0.227163 0.973857 0.974289 -0.2253 3144.29 3616.35)" stroke="black" stroke-width="4"/>
<rect id="Rectangle 44" x="2.4029" y="1.49711" width="593.392" height="18.7476" transform="matrix(0.227163 0.973857 0.974289 -0.2253 3124.21 3624.92)" stroke="black" stroke-width="4"/>
<rect id="Rectangle 45" x="2.4029" y="1.49711" width="568.413" height="18.7476" transform="matrix(0.227163 0.973857 0.974289 -0.2253 3104.64 3634.88)" stroke="black" stroke-width="4"/>
<rect id="Rectangle 46" x="2.4029" y="1.49711" width="544.337" height="18.7476" transform="matrix(0.227163 0.973857 0.974289 -0.2253 3088.86 3663.31)" stroke="black" stroke-width="4"/>
<rect id="Rectangle 47" x="2.4029" y="1.49711" width="495.457" height="18.7476" transform="matrix(0.227163 0.973857 0.974289 -0.2253 3071.28 3683.9)" stroke="black" stroke-width="4"/>
<rect id="Rectangle 48" x="2.4029" y="1.49711" width="448.628" height="18.7476" transform="matrix(0.227163 0.973857 0.974289 -0.2253 3054.31 3707.91)" stroke="black" stroke-width="4"/>
<rect id="Rectangle 49" x="2.4029" y="1.49711" width="379.873" height="18.7476" transform="matrix(0.227163 0.973857 0.974289 -0.2253 3042.19 3752.56)" stroke="black" stroke-width="4"/>
<g id="Subtract">
<mask id="path-365-inside-2" fill="white">
<path fill-rule="evenodd" clip-rule="evenodd" d="M3169.94 3583.87C3053.4 3611.81 2993.36 3776.91 3035.84 3952.62C3078.32 4128.33 3207.24 4248.12 3323.78 4220.18C3440.32 4192.24 3500.36 4027.15 3457.88 3851.44C3415.4 3675.73 3286.48 3555.93 3169.94 3583.87ZM3178.45 3616.34C3081.94 3639.47 3034.45 3785.41 3072.38 3942.28C3110.31 4099.16 3219.29 4207.58 3315.81 4184.44C3412.32 4161.3 3459.81 4015.37 3421.88 3858.49C3383.95 3701.62 3274.97 3593.2 3178.45 3616.34Z"/>
</mask>
<path fill-rule="evenodd" clip-rule="evenodd" d="M3169.94 3583.87C3053.4 3611.81 2993.36 3776.91 3035.84 3952.62C3078.32 4128.33 3207.24 4248.12 3323.78 4220.18C3440.32 4192.24 3500.36 4027.15 3457.88 3851.44C3415.4 3675.73 3286.48 3555.93 3169.94 3583.87ZM3178.45 3616.34C3081.94 3639.47 3034.45 3785.41 3072.38 3942.28C3110.31 4099.16 3219.29 4207.58 3315.81 4184.44C3412.32 4161.3 3459.81 4015.37 3421.88 3858.49C3383.95 3701.62 3274.97 3593.2 3178.45 3616.34Z" fill="#D1EE23"/>
<path d="M3035.84 3952.62L3036.81 3952.38L3035.84 3952.62ZM3169.94 3583.87L3169.71 3582.9L3169.94 3583.87ZM3323.78 4220.18L3323.55 4219.21L3323.78 4220.18ZM3457.88 3851.44L3458.85 3851.2L3457.88 3851.44ZM3178.45 3616.34L3178.69 3617.31L3178.45 3616.34ZM3315.81 4184.44L3316.04 4185.41L3315.81 4184.44ZM3421.88 3858.49L3422.85 3858.26L3421.88 3858.49ZM3036.81 3952.38C3015.61 3864.69 3020.01 3779.69 3044.2 3713.17C3068.39 3646.65 3112.33 3598.71 3170.17 3584.85L3169.71 3582.9C3111.01 3596.98 3066.66 3645.56 3042.32 3712.49C3017.97 3779.43 3013.59 3864.83 3034.87 3952.85L3036.81 3952.38ZM3323.55 4219.21C3265.71 4233.08 3204.67 4210.31 3152.72 4162.04C3100.78 4113.77 3058.02 4040.08 3036.81 3952.38L3034.87 3952.85C3056.15 4040.87 3099.09 4114.93 3151.36 4163.5C3203.62 4212.07 3265.31 4235.23 3324.01 4221.16L3323.55 4219.21ZM3456.91 3851.67C3478.11 3939.37 3473.71 4024.36 3449.52 4090.88C3425.33 4157.41 3381.39 4205.34 3323.55 4219.21L3324.01 4221.16C3382.71 4207.08 3427.06 4158.5 3451.4 4091.57C3475.75 4024.63 3480.13 3939.22 3458.85 3851.2L3456.91 3851.67ZM3170.17 3584.85C3228.01 3570.98 3289.05 3593.75 3341 3642.02C3392.94 3690.29 3435.7 3763.98 3456.91 3851.67L3458.85 3851.2C3437.57 3763.18 3394.63 3689.13 3342.36 3640.56C3290.1 3591.99 3228.41 3568.83 3169.71 3582.9L3170.17 3584.85ZM3073.35 3942.05C3054.42 3863.76 3056.82 3788.25 3075.95 3729.47C3095.09 3670.67 3130.9 3628.77 3178.69 3617.31L3178.22 3615.36C3129.5 3627.04 3093.31 3669.68 3074.05 3728.85C3054.79 3788.04 3052.41 3863.93 3071.41 3942.52L3073.35 3942.05ZM3315.57 4183.47C3267.78 4194.92 3216.74 4173.84 3172.83 4130.16C3128.93 4086.49 3092.28 4020.34 3073.35 3942.05L3071.41 3942.52C3090.41 4021.11 3127.22 4087.6 3171.42 4131.58C3215.61 4175.53 3267.32 4197.09 3316.04 4185.41L3315.57 4183.47ZM3420.91 3858.73C3439.83 3937.02 3437.44 4012.53 3418.31 4071.31C3399.17 4130.11 3363.36 4172.01 3315.57 4183.47L3316.04 4185.41C3364.76 4173.73 3400.95 4131.1 3420.21 4071.93C3439.47 4012.74 3441.85 3936.85 3422.85 3858.26L3420.91 3858.73ZM3178.69 3617.31C3226.48 3605.85 3277.52 3626.93 3321.43 3670.62C3365.33 3714.29 3401.98 3780.44 3420.91 3858.73L3422.85 3858.26C3403.85 3779.67 3367.04 3713.17 3322.84 3669.2C3278.65 3625.24 3226.94 3603.68 3178.22 3615.36L3178.69 3617.31Z" fill="black" mask="url(#path-365-inside-2)"/>
</g>
</g>
</g>
<g id="Logo 2">
<g id="Cards">
<g id="Yellow Card">
<rect id="Blue Card" width="1947.76" height="2090" transform="matrix(0.997142 -0.0755499 0.113197 0.993573 0 518.326)" fill="#DBCD53"/>
</g>
<g id="Red Card">
<rect id="Blue Card_2" width="1897.01" height="2169.19" transform="matrix(0.979044 0.255527 -0.361358 0.915381 1417.29 376.438)" fill="#D34D4D"/>
</g>
<g id="Green Card">
<g id="Green Card_2">
<rect id="Blue Card_3" width="1882.64" height="2189.82" transform="matrix(0.883382 -0.44023 0.612022 0.811962 2507.5 829.223)" fill="#24AA69"/>
</g>
</g>
<g id="Blue Card_4">
<g id="Blue Card_5">
<rect id="Blue Card_6" width="1947.76" height="2090" transform="matrix(0.997142 -0.0755499 0.113197 0.993573 1890.04 542.943)" fill="#7572E2"/>
</g>
</g>
</g>
<g id="Full Logo">
<g id="Group 20_4">
<path id="Rectangle 36_2" d="M699.096 2049.96H265.331L366.599 1542.39L699.096 1414.89V2049.96Z" fill="#C3C576"/>
<path id="Ellipse 3_65" d="M481.635 1801.46C877.071 1721.28 556.978 1585.41 491.46 1585.62C425.943 1585.83 373.275 1688.18 373.824 1814.23C374.372 1940.27 362.195 2002.14 427.712 2001.93" stroke="black" stroke-width="10"/>
<path id="Ellipse 4_65" d="M476.348 1774.25C871.783 1694.06 551.69 1558.2 486.173 1558.41C420.655 1558.62 367.988 1660.97 368.536 1787.01C369.085 1913.05 356.907 1974.93 422.424 1974.72" stroke="black" stroke-width="10"/>
</g>
<g id="Group 15_4">
<path id="Rectangle 35_2" d="M187.693 969.846H621.458L520.19 1504.68L187.693 1639.03V969.846Z" fill="#D69E9E"/>
<path id="Ellipse 1_8" d="M265.347 1400.02C803.777 1500.4 -48.0141 991.752 394.711 1032.66" stroke="black" stroke-width="10"/>
<path id="Ellipse 2_11" d="M295.583 1413.78C834.012 1514.16 -17.779 1005.52 424.947 1046.42" stroke="black" stroke-width="10"/>
</g>
<g id="Group 17_4">
<path id="Rectangle 35_3" d="M4127.02 750.575H3537.98L3675.5 1381.47L4127.02 1539.95V750.575Z" fill="#A43C2E"/>
<path id="Ellipse 12_3" d="M3881.77 1261.35C3821.77 1219.47 3754.99 1148.49 3754.99 1026.53C3754.99 904.567 3677.78 905.564 3677.78 827.292" stroke="black" stroke-width="10"/>
<path id="Ellipse 13" d="M3881.78 1261.35C3942.45 1219.47 4009.98 1148.5 4009.98 1026.53C4009.98 904.567 4088.06 905.565 4088.06 827.292" stroke="black" stroke-width="10"/>
<path id="Ellipse 14" d="M3884.06 1325.95C3824.06 1284.07 3757.28 1213.1 3757.28 1091.13C3757.28 969.171 3680.07 970.168 3680.07 891.896" stroke="black" stroke-width="10"/>
<path id="Ellipse 15" d="M3884.07 1325.95C3944.07 1284.07 4010.85 1213.1 4010.85 1091.13C4010.85 969.171 4088.06 970.168 4088.06 891.896" stroke="black" stroke-width="10"/>
</g>
<g id="Group 14_3">
<path id="Rectangle 36_3" d="M3379.33 1924.89H3922.8L3795.92 1377.08L3379.33 1239.47V1924.89Z" fill="#3A75AB"/>
<path id="Ellipse 11_3" d="M3628.09 1569.03C3628.09 1635.29 3626.22 1695.16 3622.19 1738.39C3620.17 1760.05 3617.62 1777.31 3614.57 1789.07C3613.04 1794.99 3611.45 1799.18 3609.93 1801.79C3609.1 1803.21 3608.5 1803.81 3608.18 1804.06C3607.89 1803.81 3607.34 1803.22 3606.6 1801.88C3605.15 1799.29 3603.69 1795.11 3602.3 1789.18C3599.55 1777.42 3597.42 1760.16 3595.81 1738.48C3592.61 1695.22 3591.56 1635.34 3591.56 1569.03C3591.56 1502.73 3592.61 1442.85 3595.81 1399.58C3597.42 1377.91 3599.55 1360.64 3602.3 1348.88C3603.69 1342.96 3605.15 1338.78 3606.6 1336.19C3607.34 1334.85 3607.89 1334.26 3608.18 1334.01C3608.5 1334.26 3609.1 1334.86 3609.93 1336.28C3611.45 1338.89 3613.04 1343.08 3614.57 1349C3617.62 1360.76 3620.17 1378.02 3622.19 1399.68C3626.22 1442.91 3628.09 1502.78 3628.09 1569.03ZM3608.44 1804.24C3608.44 1804.24 3608.43 1804.23 3608.42 1804.23C3608.43 1804.23 3608.44 1804.24 3608.44 1804.24ZM3608.44 1333.83C3608.44 1333.83 3608.43 1333.84 3608.42 1333.84C3608.43 1333.83 3608.44 1333.83 3608.44 1333.83ZM3607.93 1333.84C3607.93 1333.84 3607.93 1333.84 3607.93 1333.84L3607.93 1333.84Z" stroke="black" stroke-width="10"/>
<path id="Ellipse 16_2" d="M3647.12 1651.43C3647.12 1717.68 3645.25 1777.55 3641.22 1820.78C3639.2 1842.44 3636.66 1859.7 3633.61 1871.46C3632.07 1877.38 3630.49 1881.57 3628.96 1884.18C3628.13 1885.6 3627.53 1886.2 3627.22 1886.45C3626.92 1886.2 3626.37 1885.61 3625.63 1884.27C3624.19 1881.68 3622.72 1877.5 3621.33 1871.58C3618.58 1859.82 3616.45 1842.55 3614.84 1820.88C3611.64 1777.61 3610.6 1717.73 3610.6 1651.43C3610.6 1585.12 3611.64 1525.24 3614.84 1481.97C3616.45 1460.3 3618.58 1443.04 3621.33 1431.28C3622.72 1425.35 3624.19 1421.17 3625.63 1418.58C3626.37 1417.24 3626.92 1416.65 3627.22 1416.4C3627.53 1416.65 3628.13 1417.25 3628.96 1418.67C3630.49 1421.28 3632.07 1425.47 3633.61 1431.39C3636.66 1443.15 3639.2 1460.41 3641.22 1482.07C3645.25 1525.3 3647.12 1585.17 3647.12 1651.43ZM3627.47 1886.63C3627.47 1886.63 3627.47 1886.63 3627.45 1886.62C3627.47 1886.62 3627.47 1886.63 3627.47 1886.63ZM3627.47 1416.22C3627.47 1416.22 3627.47 1416.23 3627.45 1416.23C3627.47 1416.23 3627.47 1416.22 3627.47 1416.22ZM3626.96 1416.24C3626.96 1416.24 3626.96 1416.24 3626.96 1416.24L3626.96 1416.24Z" stroke="black" stroke-width="10"/>
</g>
<g id="Group 21_4">
<path id="Rectangle 36_4" d="M4612.47 1558.43H4069L4195.88 1010.61L4612.47 873V1558.43Z" fill="#9DCA63"/>
<path id="Ellipse 11_4" d="M4363.72 1202.58C4363.72 1268.84 4365.59 1328.7 4369.62 1371.93C4371.64 1393.59 4374.18 1410.86 4377.23 1422.61C4378.77 1428.53 4380.35 1432.73 4381.88 1435.33C4382.71 1436.75 4383.31 1437.36 4383.63 1437.6C4383.92 1437.35 4384.47 1436.76 4385.21 1435.43C4386.65 1432.84 4388.12 1428.65 4389.51 1422.73C4392.26 1410.97 4394.39 1393.7 4396 1372.03C4399.2 1328.77 4400.24 1268.88 4400.24 1202.58C4400.24 1136.27 4399.2 1076.39 4396 1033.13C4394.39 1011.46 4392.26 994.189 4389.51 982.428C4388.12 976.505 4386.65 972.321 4385.21 969.729C4384.47 968.396 4383.92 967.804 4383.63 967.552C4383.31 967.8 4382.71 968.405 4381.88 969.822C4380.35 972.431 4378.77 976.627 4377.23 982.546C4374.18 994.302 4371.64 1011.57 4369.62 1033.22C4365.59 1076.46 4363.72 1136.32 4363.72 1202.58ZM4383.37 1437.78C4383.37 1437.78 4383.37 1437.78 4383.39 1437.77C4383.37 1437.78 4383.37 1437.78 4383.37 1437.78ZM4383.37 967.376C4383.37 967.377 4383.37 967.38 4383.39 967.385C4383.37 967.378 4383.37 967.376 4383.37 967.376ZM4383.88 967.389C4383.88 967.389 4383.88 967.388 4383.88 967.388L4383.88 967.389Z" stroke="black" stroke-width="10"/>
<path id="Ellipse 16_3" d="M4344.69 1284.97C4344.69 1351.23 4346.56 1411.09 4350.59 1454.33C4352.61 1475.98 4355.15 1493.25 4358.2 1505C4359.74 1510.92 4361.32 1515.12 4362.85 1517.73C4363.68 1519.14 4364.28 1519.75 4364.59 1520C4364.89 1519.74 4365.44 1519.15 4366.18 1517.82C4367.62 1515.23 4369.09 1511.04 4370.47 1505.12C4373.22 1493.36 4375.36 1476.09 4376.96 1454.42C4380.17 1411.16 4381.21 1351.28 4381.21 1284.97C4381.21 1218.66 4380.17 1158.78 4376.96 1115.52C4375.36 1093.85 4373.22 1076.58 4370.47 1064.82C4369.09 1058.9 4367.62 1054.71 4366.18 1052.12C4365.44 1050.79 4364.89 1050.2 4364.59 1049.94C4364.28 1050.19 4363.68 1050.8 4362.85 1052.21C4361.32 1054.82 4359.74 1059.02 4358.2 1064.94C4355.15 1076.69 4352.61 1093.96 4350.59 1115.61C4346.56 1158.85 4344.69 1218.71 4344.69 1284.97ZM4364.33 1520.17C4364.33 1520.17 4364.34 1520.17 4364.36 1520.16C4364.34 1520.17 4364.33 1520.17 4364.33 1520.17ZM4364.33 1049.77C4364.33 1049.77 4364.34 1049.77 4364.36 1049.78C4364.34 1049.77 4364.33 1049.77 4364.33 1049.77ZM4364.85 1049.78C4364.85 1049.78 4364.85 1049.78 4364.85 1049.78L4364.85 1049.78Z" stroke="black" stroke-width="10"/>
</g>
<g id="Group 34">
<g id="Group 22_4">
<path id="Rectangle 36_5" d="M4612 1911.43H5155.47L5028.59 1363.61L4612 1226V1911.43Z" fill="#6C47A8"/>
</g>
<path id="Ellipse 16_4" d="M4770 1789C4710 1747.12 4736.21 1644.2 4736.21 1522.24C4736.21 1400.27 4686.5 1381.27 4686.5 1303" stroke="black" stroke-width="10"/>
<path id="Ellipse 18_2" d="M4811.5 1837C4751.5 1795.12 4777.71 1692.2 4777.71 1570.24C4777.71 1448.27 4728 1429.27 4728 1351" stroke="black" stroke-width="10"/>
<path id="Ellipse 17_2" d="M5106 1789C5077.04 1764.57 5005.89 1775.24 4921.57 1775.24C4837.25 1775.24 4824.11 1755 4770 1755" stroke="black" stroke-width="10"/>
<path id="Ellipse 19_2" d="M5047.5 1824.5C5018.54 1796.48 5005.89 1812.22 4921.57 1812.22C4837.25 1812.22 4824.11 1789 4770 1789" stroke="black" stroke-width="10"/>
</g>
<g id="Group 13_4">
<ellipse id="Ellipse 26_3" cx="957.33" cy="1436" rx="183.97" ry="313.477" fill="#589999"/>
<path id="Ellipse 5_70" d="M953.955 1699.13C911.076 1699.13 876.316 1581.68 876.316 1436.81C876.316 1291.94 911.076 1174.5 953.955 1174.5" stroke="black" stroke-width="10"/>
<path id="Ellipse 6_2" d="M1046.85 1436.81C1046.85 1508.91 1038.29 1573.99 1024.56 1620.89C1017.68 1644.37 1009.59 1663.01 1000.83 1675.67C991.969 1688.47 983.175 1694.13 975.052 1694.13C966.93 1694.13 958.135 1688.47 949.271 1675.67C940.512 1663.01 932.423 1644.37 925.549 1620.89C911.819 1573.99 903.257 1508.91 903.257 1436.81C903.257 1364.71 911.819 1299.63 925.549 1252.73C932.423 1229.25 940.512 1210.61 949.271 1197.96C958.135 1185.15 966.93 1179.5 975.052 1179.5C983.175 1179.5 991.969 1185.15 1000.83 1197.96C1009.59 1210.61 1017.68 1229.25 1024.56 1252.73C1038.29 1299.63 1046.85 1364.71 1046.85 1436.81Z" stroke="black" stroke-width="10"/>
</g>
<g id="Group 9_5">
<path id="Polygon 1_7" d="M1283.35 1250.5L1475.74 1924.08H1191.03L1283.35 1250.5Z" fill="#74CDAD"/>
<path id="Polygon 2" d="M1176.74 1300.68L1818.23 1203.74L1975.07 1880.33L1589.08 1824.36L1176.74 1300.68Z" fill="#74CDAD"/>
<g id="Group 2_5">
<path id="Ellipse 7_3" d="M1473.24 1592.92C2037.81 1567.23 1604.72 1294.73 1473.24 1301.68C1341.76 1308.63 1248.83 1439.02 1265.68 1592.92C1282.52 1746.82 1278.02 1871.11 1409.5 1864.16" stroke="black" stroke-width="10"/>
<path id="Ellipse 8_4" d="M1893.3 1829.23C1976.58 1829.23 1654.54 1868.93 1654.54 1772.47C1654.54 1676 1587.02 1597.8 1503.74 1597.8" stroke="black" stroke-width="10"/>
</g>
<g id="Group 3_4">
<path id="Ellipse 7_4" d="M1503.89 1570.99C2068.45 1545.31 1635.37 1272.8 1503.89 1279.75C1372.4 1286.7 1279.47 1417.1 1296.32 1570.99C1313.17 1724.89 1308.66 1849.19 1440.14 1842.24" stroke="black" stroke-width="10"/>
<path id="Ellipse 8_5" d="M1923.94 1807.3C2007.23 1807.3 1685.18 1847 1685.18 1750.54C1685.18 1654.07 1617.67 1575.87 1534.39 1575.87" stroke="black" stroke-width="10"/>
</g>
</g>
<g id="Group 10_4">
<path id="Polygon 1_8" d="M2528.95 914.284L2721.33 1587.87H2436.63L2528.95 914.284Z" fill="#A862BA"/>
<path id="Polygon 2_2" d="M2422.34 964.464L3063.83 867.519L3220.67 1544.12L2834.68 1488.15L2422.34 964.464Z" fill="#A862BA"/>
<g id="Group 2_6">
<path id="Ellipse 7_5" d="M2718.84 1256.71C3283.41 1231.02 2850.32 958.509 2718.84 965.461C2587.36 972.413 2494.43 1102.81 2511.27 1256.71C2528.12 1410.6 2523.61 1534.9 2655.1 1527.95" stroke="black" stroke-width="10"/>
<path id="Ellipse 8_6" d="M3138.89 1493.01C3222.18 1493.01 2900.14 1532.71 2900.14 1436.25C2900.14 1339.78 2832.62 1261.58 2749.34 1261.58" stroke="black" stroke-width="10"/>
</g>
<g id="Group 3_5">
<path id="Ellipse 7_6" d="M2749.48 1234.78C3314.05 1209.09 2880.97 936.582 2749.48 943.534C2618 950.486 2525.07 1080.88 2541.92 1234.78C2558.77 1388.68 2554.26 1512.97 2685.74 1506.02" stroke="black" stroke-width="10"/>
<path id="Ellipse 8_7" d="M3169.54 1471.09C3252.82 1471.09 2930.78 1510.79 2930.78 1414.32C2930.78 1317.86 2863.27 1239.66 2779.99 1239.66" stroke="black" stroke-width="10"/>
</g>
</g>
<g id="Torch">
<g id="Group 7_4">
<path id="Ellipse 21" d="M2114.75 1150.45C2114.75 1188.79 2045.78 1122.17 1998.63 1122.17C1951.47 1122.17 1889.34 965.122 1889.34 926.786C1889.34 888.45 1989.04 1032.19 2036.2 1032.19C2083.35 1032.19 2114.75 1112.11 2114.75 1150.45Z" fill="url(#paint9_linear)"/>
<path id="Ellipse 24" d="M2200.13 1131.24C2200.13 1169.58 2131.16 1102.96 2084.01 1102.96C2036.86 1102.96 1974.72 945.914 1974.72 907.578C1995.21 957.636 2036.86 988.486 2084.01 988.486C2162.56 911.361 2200.13 1092.91 2200.13 1131.24Z" fill="url(#paint10_linear)"/>
<path id="Ellipse 25" d="M2176.05 1001.75C2224.61 1013.31 2161.03 943.728 2175.24 909.884C2189.46 876.04 2009.27 784.093 1960.72 772.535C2017.94 802.335 2044.46 841.524 2030.25 875.368C1908.88 908.492 2127.5 990.193 2176.05 1001.75Z" fill="url(#paint11_linear)"/>
<path id="Ellipse 23" d="M2223.67 1094.07C2256.03 1123.67 2253.04 1039.24 2289.45 1016.68C2325.86 994.127 2241.25 843.145 2208.89 813.546C2176.53 783.946 2220.89 942.623 2184.48 965.181C2148.08 987.738 2191.31 1064.47 2223.67 1094.07Z" fill="url(#paint12_linear)"/>
<path id="Ellipse 22" d="M2309.41 1145.31C2284.56 1183.11 2131.17 1179.92 2059 1153.02C1986.82 1126.13 2034.14 689.983 2059 652.183C2083.85 614.382 2050.36 755.924 2122.54 782.818C2194.72 809.712 2334.27 1107.51 2309.41 1145.31Z" fill="url(#paint13_linear)"/>
</g>
<path id="Rectangle 34_2" d="M2025.95 1250.71H2237.69L2200.13 1836.87H2084.01L2025.95 1250.71Z" fill="#F8D475"/>
<g id="Group 2_7">
<rect id="Rectangle 3_8" x="1913.25" y="1127.31" width="432.181" height="165.792" fill="#F8D475"/>
<rect id="Rectangle 4_3" x="1892.76" y="1101.6" width="471.298" height="35.9919" fill="#F8D475"/>
<path id="Ellipse 20_7" d="M2345.43 1286.89C2345.43 1326.95 2248.68 1359.42 2129.34 1359.42C2010 1359.42 1913.25 1326.95 1913.25 1286.89C1913.25 1246.83 2010 1214.35 2129.34 1214.35C2248.68 1214.35 2345.43 1246.83 2345.43 1286.89Z" fill="#F8D475"/>
</g>
</g>
</g>
</g>
<defs>
<filter id="filter0_d" x="2110.27" y="2635.8" width="1647.66" height="3593.35" filterUnits="userSpaceOnUse" color-interpolation-filters="sRGB">
<feFlood flood-opacity="0" result="BackgroundImageFix"/>
<feColorMatrix in="SourceAlpha" type="matrix" values="0 0 0 0 0 0 0 0 0 0 0 0 0 0 0 0 0 0 127 0"/>
<feOffset dx="50" dy="5"/>
<feGaussianBlur stdDeviation="2"/>
<feColorMatrix type="matrix" values="0 0 0 0 0 0 0 0 0 0 0 0 0 0 0 0 0 0 0.5 0"/>
<feBlend mode="normal" in2="BackgroundImageFix" result="effect1_dropShadow"/>
<feBlend mode="normal" in="SourceGraphic" in2="effect1_dropShadow" result="shape"/>
</filter>
<radialGradient id="paint0_radial" cx="0" cy="0" r="1" gradientUnits="userSpaceOnUse" gradientTransform="translate(2984.38 2722.08) rotate(57.484) scale(5.16423 75.3764)">
<stop/>
<stop offset="1" stop-color="white" stop-opacity="0"/>
</radialGradient>
<radialGradient id="paint1_radial" cx="0" cy="0" r="1" gradientUnits="userSpaceOnUse" gradientTransform="translate(2936.09 2758.17) rotate(-32.516) scale(1.27218 20.6569)">
<stop/>
<stop offset="1" stop-color="white" stop-opacity="0"/>
</radialGradient>
<radialGradient id="paint2_radial" cx="0" cy="0" r="1" gradientUnits="userSpaceOnUse" gradientTransform="translate(3038.67 2689.51) rotate(147.484) scale(1.27218 20.6569)">
<stop/>
<stop offset="1" stop-color="white" stop-opacity="0"/>
</radialGradient>
<radialGradient id="paint3_radial" cx="0" cy="0" r="1" gradientUnits="userSpaceOnUse" gradientTransform="translate(3025.06 2696.56) rotate(147.484) scale(1.27218 20.6569)">
<stop/>
<stop offset="1" stop-color="white" stop-opacity="0"/>
</radialGradient>
<radialGradient id="paint4_radial" cx="0" cy="0" r="1" gradientUnits="userSpaceOnUse" gradientTransform="translate(2950.7 2745.59) rotate(-32.516) scale(1.27218 20.6569)">
<stop/>
<stop offset="1" stop-color="white" stop-opacity="0"/>
</radialGradient>
<radialGradient id="paint5_radial" cx="0" cy="0" r="1" gradientUnits="userSpaceOnUse" gradientTransform="translate(2966.59 2733.83) rotate(-32.516) scale(0.636088 20.6569)">
<stop/>
<stop offset="1" stop-color="white" stop-opacity="0"/>
</radialGradient>
<radialGradient id="paint6_radial" cx="0" cy="0" r="1" gradientUnits="userSpaceOnUse" gradientTransform="translate(2982.68 2723.57) rotate(-32.516) scale(0.636088 20.6569)">
<stop/>
<stop offset="1" stop-color="white" stop-opacity="0"/>
</radialGradient>
<radialGradient id="paint7_radial" cx="0" cy="0" r="1" gradientUnits="userSpaceOnUse" gradientTransform="translate(2997.7 2713.99) rotate(147.484) scale(0.636088 20.6569)">
<stop/>
<stop offset="1" stop-color="white" stop-opacity="0"/>
</radialGradient>
<radialGradient id="paint8_radial" cx="0" cy="0" r="1" gradientUnits="userSpaceOnUse" gradientTransform="translate(3012.72 2704.42) rotate(147.484) scale(0.636088 20.6569)">
<stop/>
<stop offset="1" stop-color="white" stop-opacity="0"/>
</radialGradient>
<linearGradient id="paint9_linear" x1="2002.04" y1="920.286" x2="2002.04" y2="1162.34" gradientUnits="userSpaceOnUse">
<stop stop-color="#FF7614"/>
<stop offset="1" stop-color="#FF7614" stop-opacity="0"/>
</linearGradient>
<linearGradient id="paint10_linear" x1="2087.42" y1="907.578" x2="2087.42" y2="1143.13" gradientUnits="userSpaceOnUse">
<stop stop-color="#FF7614"/>
<stop offset="1" stop-color="#FF7614" stop-opacity="0"/>
</linearGradient>
<linearGradient id="paint11_linear" x1="1926.74" y1="853.425" x2="2205.7" y2="970.613" gradientUnits="userSpaceOnUse">
<stop stop-color="#F37921"/>
<stop offset="1" stop-color="#FF7614" stop-opacity="0"/>
</linearGradient>
<linearGradient id="paint12_linear" x1="2116.38" y1="862.44" x2="2256.74" y2="1088.98" gradientUnits="userSpaceOnUse">
<stop stop-color="#FF7614"/>
<stop offset="1" stop-color="#FF7614" stop-opacity="0"/>
</linearGradient>
<linearGradient id="paint13_linear" x1="2294.51" y1="730.993" x2="2127.72" y2="1178.63" gradientUnits="userSpaceOnUse">
<stop stop-color="#FF7614"/>
<stop offset="1" stop-color="#FF7614" stop-opacity="0"/>
</linearGradient>
</defs>
</svg>
